<?xml version="1.0" standalone="no"?>
<!DOCTYPE svg PUBLIC "-//W3C//DTD SVG 1.1//EN" "http://www.w3.org/Graphics/SVG/1.1/DTD/svg11.dtd" >
<!--
2013-9-30: Created.
-->
<svg>
<metadata>
Created by iconfont
</metadata>
<defs>

<font id="iconfont" horiz-adv-x="1024" >
  <font-face
    font-family="iconfont"
    font-weight="500"
    font-stretch="normal"
    units-per-em="1024"
    ascent="896"
    descent="-128"
  />
    <missing-glyph />
    
    <glyph glyph-name="x" unicode="x" horiz-adv-x="1001"
d="M281 543q-27 -1 -53 -1h-83q-18 0 -36.5 -6t-32.5 -18.5t-23 -32t-9 -45.5v-76h912v41q0 16 -0.5 30t-0.5 18q0 13 -5 29t-17 29.5t-31.5 22.5t-49.5 9h-133v-97h-438v97zM955 310v-52q0 -23 0.5 -52t0.5 -58t-10.5 -47.5t-26 -30t-33 -16t-31.5 -4.5q-14 -1 -29.5 -0.5
t-29.5 0.5h-32l-45 128h-439l-44 -128h-29h-34q-20 0 -45 1q-25 0 -41 9.5t-25.5 23t-13.5 29.5t-4 30v167h911zM163 247q-12 0 -21 -8.5t-9 -21.5t9 -21.5t21 -8.5q13 0 22 8.5t9 21.5t-9 21.5t-22 8.5zM316 123q-8 -26 -14 -48q-5 -19 -10.5 -37t-7.5 -25t-3 -15t1 -14.5
t9.5 -10.5t21.5 -4h37h67h81h80h64h36q23 0 34 12t2 38q-5 13 -9.5 30.5t-9.5 34.5q-5 19 -11 39h-368zM336 498v228q0 11 2.5 23t10 21.5t20.5 15.5t34 6h188q31 0 51.5 -14.5t20.5 -52.5v-227h-327z" />
    

    
    <glyph glyph-name="liebiao" unicode="&#58882;" d="M187.392 825.344q28.672 0 48.64-19.456t19.968-48.128l0-52.224q0-28.672-19.968-48.64t-48.64-19.968l-54.272 0q-27.648 0-47.616 19.968t-19.968 48.64l0 52.224q0 28.672 19.968 48.128t47.616 19.456l54.272 0zM889.856 825.344q27.648 0 47.616-19.456t19.968-48.128l0-52.224q0-28.672-19.968-48.64t-47.616-19.968l-437.248 0q-28.672 0-48.64 19.968t-19.968 48.64l0 52.224q0 28.672 19.968 48.128t48.64 19.456l437.248 0zM187.392 506.88q28.672 0 48.64-19.968t19.968-48.64l0-52.224q0-27.648-19.968-47.616t-48.64-19.968l-54.272 0q-27.648 0-47.616 19.968t-19.968 47.616l0 52.224q0 28.672 19.968 48.64t47.616 19.968l54.272 0zM889.856 506.88q27.648 0 47.616-19.968t19.968-48.64l0-52.224q0-27.648-19.968-47.616t-47.616-19.968l-437.248 0q-28.672 0-48.64 19.968t-19.968 47.616l0 52.224q0 28.672 19.968 48.64t48.64 19.968l437.248 0zM187.392 187.392q28.672 0 48.64-19.968t19.968-47.616l0-52.224q0-28.672-19.968-48.64t-48.64-19.968l-54.272 0q-27.648 0-47.616 19.968t-19.968 48.64l0 52.224q0 27.648 19.968 47.616t47.616 19.968l54.272 0zM889.856 187.392q27.648 0 47.616-19.968t19.968-47.616l0-52.224q0-28.672-19.968-48.64t-47.616-19.968l-437.248 0q-28.672 0-48.64 19.968t-19.968 48.64l0 52.224q0 27.648 19.968 47.616t48.64 19.968l437.248 0z"  horiz-adv-x="1024" />

    
    <glyph glyph-name="tuikuan" unicode="&#58880;" d="M936.470481 464.148411c-9.006118 7.248078-22.181185 5.816472-29.404704-3.25616l-35.853579-44.924165c-1.173732 17.362436-3.472078 34.854832-7.119141 52.390207-44.728714 216.201064-255.093862 354.923522-469.839785 309.911352C179.482791 733.217566 41.648562 521.486304 86.3783 305.329243c44.729737-216.202087 255.091816-354.925568 469.861274-309.87042 78.063937 16.363689 145.169287 55.384401 197.687408 108.122533 0.194428 0.173962 0.39295 0.345877 0.587378 0.563842 0.934279 0.955768 1.257643 2.039449 2.191922 3.037173 1.541099 2.607384 2.64627 5.686513 2.64627 8.940626 0 9.54847-7.723915 17.319457-17.231453 17.319457-5.120624 0-9.592472-2.343371-12.760628-5.903453l-0.12996 0.085958c-47.680952-47.789423-108.860337-83.033112-179.697685-97.879238-194.476273-40.799218-384.982118 84.857667-425.479461 280.615119-40.518832 195.758476 84.314291 387.522987 278.791587 428.324252 194.476273 40.757263 384.982118-84.901669 425.480484-280.660144 3.124154-15.061021 5.253654-30.036084 6.509251-44.968168l-43.447535 35.114752c-9.029654 7.248078-22.181185 5.816472-29.404704-3.25616-7.251148-9.071609-5.794983-22.309098 3.212158-29.601178 0.041956-0.044002 0.041956-0.044002 0.085958-0.044002l80.06143-64.717977c0.022513 0 0.064468-0.041956 0.084934-0.041956 4.560876-3.689019 10.202363-5.121648 15.581883-4.470825 5.424546 0.563842 10.615779 3.123131 14.281261 7.724938 0.022513 0.041956 0.044002 0.086981 0.044002 0.086981l64.282049 80.646761c0.023536 0 0.023536 0 0.062422 0.044002C946.910251 443.617819 945.476599 456.855308 936.470481 464.148411zM463.635479 165.388027c0-9.981329 8.138354-18.10024 18.144242-18.10024 10.004865 0 18.123776 8.116865 18.123776 18.10024l0.107447 0L500.010945 273.076678l109.033275 0 0 0.172939c10.006911 0 18.122753 8.160867 18.122753 18.145266 0 10.025331-8.116865 18.141172-18.122753 18.141172l-109.033275 0 0 56.035224 109.054765 0 0 0.002047 0 0.173962c9.983375 0 18.10024 8.116865 18.10024 18.143219 0 10.026354-8.116865 18.144242-18.10024 18.144242L500.008898 402.034748l0 33.378202 108.101043 106.037035-0.10847 0.130983c7.487531 6.641257 8.159844 18.10024 1.51961 25.610284-6.66377 7.509021-18.122753 8.159844-25.610284 1.518586l-101.676727-100.222609L375.285269 573.527564c-7.510044 6.642281-18.969027 5.946432-25.610284-1.561565-6.640234-7.466042-5.966898-18.925025 1.51961-25.566282l-0.10847-0.130983 112.463398-109.989043 0-34.244942L354.493733 402.034748l0-0.088004c-9.983375 0-18.10024-8.115841-18.10024-18.144242 0-10.026354 8.116865-18.144242 18.10024-18.144242l0-0.086981 109.055788 0 0-56.035224L354.493733 309.536055l0-0.084934c-9.983375 0-18.122753-8.160867-18.122753-18.145266 0-10.025331 8.138354-18.141172 18.122753-18.141172l0-0.088004 109.055788 0 0-107.687628L463.635479 165.38905z"  horiz-adv-x="1024" />

    
    <glyph glyph-name="mima" unicode="&#58918;" d="M835.52 483.584 736 483.584c2.88 16.064 0 82.496 0 99.584C736 720.576 635.776 832 512 832 388.288 832 288 720.576 288 583.104c0-17.088-3.008-83.52 0-99.584L188.416 483.52c-27.52 0-49.728-22.272-49.728-49.792l0-448c0-27.52 22.272-49.728 49.728-49.728l647.104 0c27.52 0 49.856 22.272 49.856 49.728l0 448C885.376 461.312 862.976 483.584 835.52 483.584zM512 782.272c98.944 0 179.072-89.216 179.072-199.104 0-17.344-1.152-83.584-4.864-99.584L337.792 483.584C334.016 499.584 332.8 565.824 332.8 583.104 332.8 693.056 413.056 782.272 512 782.272zM835.52 35.584c0-27.52-22.272-49.792-49.728-49.792L238.208-14.208c-27.52 0-49.792 22.336-49.792 49.792L188.416 384c0 27.52 22.336 49.728 49.792 49.728l547.52 0c27.52 0 49.728-22.272 49.728-49.728L835.456 35.584zM686.272 184.896 636.352 184.896 636.352 284.416 586.624 284.416l0-99.584L487.168 184.832c0 54.976-44.608 99.584-99.648 99.584S288 239.872 288 184.896c0-54.912 44.48-99.584 99.52-99.584 36.736 0 68.48 20.096 85.76 49.792L736 135.104 736 284.416l-49.728 0L686.272 184.896z"  horiz-adv-x="1024" />

    
    <glyph glyph-name="shouchang" unicode="&#58895;" d="M928.869275 480.263221c-4.841269 14.704022-18.272513 25.021413-35.998232 27.56697l-237.171991 34.112103L549.658066 754.592563c-7.909044 15.885669-21.998692 25.384918-37.634515 25.384918-15.669614 0-29.749023-9.499249-37.645779-25.362391L368.301971 541.942294l-237.171991-34.112103c-17.726743-2.545557-31.180514-12.862948-36.009496-27.589497-4.841269-14.726549-0.056318-30.908142 12.738025-43.247848l171.640791-165.526744-40.52105-233.808292c-2.41961-13.954486 0.670692-26.81641 8.693395-36.225551 7.260879-8.499867 18.055434-13.408717 29.6241-13.408717 7.499461 0 15.090054 1.999788 22.578252 5.863178l212.150578 110.404067 212.127027-110.404067c18.999522-9.908832 40.226151-6.500079 52.179824 7.545539 8.04523 9.408117 11.114029 22.271065 8.704658 36.270605l-30.066449 173.448075c-62.269897 7.363275-148.584351 34.771532-219.513852 121.585677 73.632747-49.975245 148.766616-63.383962 209.400229-63.088038l-0.318451 1.817524 47.08871 45.407373c-27.795313 9.681513-56.929961 28.316507-64.4755 64.486764 12.158465-30.191372 52.906834-40.213863 86.587851-43.169003l102.427442 98.802634C928.960408 449.377606 933.710544 465.535648 928.869275 480.263221z"  horiz-adv-x="1024" />

    
    <glyph glyph-name="jinbi" unicode="&#59080;" d="M512 415.8c169.7 0 350 55.7 350 159.1S681.7 734 512 734c-169.7 0-350-55.7-350-159.1S342.3 415.8 512 415.8zM512 670.4c174.8 0 286.4-56.5 286.4-95.5S686.8 479.5 512 479.5 225.6 536 225.6 574.9 337.2 670.4 512 670.4zM225.5 441.2c-14.2 10.4-34.1 7.2-44.4-7-13-17.8-19.4-36.8-19-56.4 0.8-47.9 41.8-89.6 115.2-117.5 60.7-23.1 139.4-35.5 222.9-35.5 4.8 0 9.7 0.1 14.6 0.1 169.7 3 349 61.9 347.2 165.1-0.2 15-4.4 29.6-12.6 43.5-8.9 15.2-28.6 20.2-43.5 11.3-15.2-8.9-20.3-28.4-11.3-43.6 2.5-4.3 3.7-8.2 3.8-12.2 0.7-38.9-109.9-97.3-284.7-100.5-81.4-1-156.9 9.7-213.7 31.3-44.8 17-73.9 40.2-74.2 59.2-0.1 5.4 2.2 11.4 6.7 17.7C242.8 411 239.7 430.9 225.5 441.2zM801.4 252.8c-14.5-9.8-18.5-29.6-8.6-44.2 3.8-5.6 5.6-10.7 5.6-15.5 0-38.9-111.6-95.5-286.4-95.5s-286.4 56.6-286.4 95.5c0 4.7 1.7 9.6 5.1 14.8 9.6 14.7 5.6 34.4-9.1 44.1-14.7 9.6-34.4 5.5-44.1-9.1-10.3-15.7-15.5-32.4-15.5-49.7C162 89.7 342.3 34 512 34c169.7 0 350 55.7 350 159.1 0 17.7-5.5 34.9-16.4 51.1C835.8 258.8 816 262.6 801.4 252.8z"  horiz-adv-x="1024" />

    
    <glyph glyph-name="daishouhuo" unicode="&#58884;" d="M351.04161 320.50999 222.978932 320.50999c-17.674545 0-32.017204 14.31196-32.017204 32.018228 0 17.672498 14.34266 32.015158 32.017204 32.015158l96.048543 0 0 96.046496c0 17.674545 14.343683 32.019251 32.013111 32.019251 17.674545 0 32.017204-14.344706 32.017204-32.019251l0-128.061654C383.058814 334.821951 368.716154 320.50999 351.04161 320.50999L351.04161 320.50999zM701.3623 229.585141c-61.983703 0-113.724111-43.314505-127.362736-101.169167L450.133466 128.415974c-13.576203 57.917084-65.379033 101.263311-127.392412 101.263311-72.326259 0-131.168412-58.814524-131.168412-131.134643 0-72.38868 58.842153-131.293255 131.168412-131.293255 60.410881 0 110.900809 41.364083 126.044718 97.102548l126.498042 0c15.111163-55.738465 65.599044-97.042173 126.078487-97.042173 72.257697 0 131.071198 58.81657 131.071198 131.136689C832.433498 170.775734 773.619998 229.585141 701.3623 229.585141L701.3623 229.585141zM322.770729 31.308309c-37.010939 0-67.138096 30.16195-67.138096 67.26601 0 36.983309 30.098505 67.110467 67.138096 67.110467 37.009915 0 67.10842-30.099529 67.10842-67.110467C389.87915 61.469236 359.780645 31.308309 322.770729 31.308309L322.770729 31.308309zM701.3623 31.371754c-36.981263 0-67.10842 30.097482-67.10842 67.10842s30.097482 67.104327 67.10842 67.104327c36.942377 0 67.040882-30.093389 67.040882-67.104327S738.338447 31.371754 701.3623 31.371754L701.3623 31.371754zM863.327112 800.749636 398.809543 800.749636c-43.99091 0-79.781044-35.794228-79.781044-79.784114l0-92.555999-194.754612-97.872075c-1.378393-0.708128-2.720971-1.50426-4.001127-2.403746-36.116569-25.390273-56.029084-64.99427-56.029084-111.575168l0-322.148048c0-17.704221 14.343683-32.010041 32.018228-32.010041 17.670451 0 32.013111 14.305821 32.013111 32.010041L128.275014 416.558533c0 25.038256 9.091052 44.536332 27.054169 57.916061l210.090902 105.555058c1.440815 0.709151 2.368954 1.988284 3.64911 2.882654 1.885953 1.314948 3.774977 2.495844 5.314029 4.161786 1.407046 1.538029 2.335185 3.331885 3.425006 5.061272 1.088798 1.729387 2.242064 3.326768 2.974751 5.28026 0.801249 2.179642 1.026376 4.417613 1.348718 6.693446 0.25378 1.567705 0.927115 2.945075 0.927115 4.542456L383.058814 720.965521c0 8.67559 7.074116 15.754822 15.750729 15.754822l464.517569 0c17.640776 0 31.984459-14.602579 31.984459-32.531927l0-607.788623c0-17.702174 14.312984-32.016181 32.017204-32.016181 17.705244 0 32.018228 14.314007 32.018228 32.016181L959.347003 704.188416C959.347003 757.434108 916.249439 800.749636 863.327112 800.749636L863.327112 800.749636zM863.327112 800.749636"  horiz-adv-x="1024" />

    
    <glyph glyph-name="dianpu" unicode="&#58886;" d="M949.958168 529.082306c-0.064468 0.481977-0.157589 0.933255-0.255827 1.318018-0.388856 1.87265-0.904603 3.676739-1.641383 5.411243l-75.505671 187.960883c-13.0799 38.97671-50.636261 62.873979-94.572936 62.97324L247.996722 786.74569c-44.51689 0-79.109756-23.677259-91.64321-61.105706L75.178725 533.84989c-0.38374-1.12973-0.807389-2.800789-1.160429-4.511757-5.894244-18.101263-8.856715-36.686551-8.856715-55.339376 0.064468-65.581648 36.043914-125.46348 93.865831-156.290579 0 0 0-0.033769 0.033769-0.033769 0.028653 0 0.028653 0 0.028653-0.029676l0 0c0 0 0.034792 0 0.034792-0.033769 23.804149-12.691043 51.795667-19.130709 83.330894-19.130709 52.857858 0.157589 101.82306 23.382547 135.192052 63.134923 33.211403-39.429011 81.787748-62.491263 134.552485-62.815651 52.341089 0.417509 100.790544 23.577998 133.840264 62.97324 33.374108-39.749306 82.397638-62.875003 135.51644-62.875003 32.150234 0.157589 60.687174 6.925736 84.717474 20.098757 56.951083 31.118741 92.28687 90.7734 92.257194 155.681712C958.623525 493.324918 955.56691 512.042211 949.958168 529.082306L949.958168 529.082306zM835.445088 375.529071c-14.59337-7.990998-32.788777-12.082176-53.953819-12.21009-39.232536 0-74.989925 19.906375-95.865371 53.699016-1.479701 3.188622-3.962242 8.467859-8.596795 13.55983-5.318122 5.956665-14.981203 13.011338-30.891568 13.011338-12.824073 0-24.448832-5.249561-31.020504-13.299911-4.349051-4.89652-6.733355-9.761318-8.439206-13.30605-20.618597-33.367969-56.081273-53.471842-94.51256-53.762461-38.908148 0.226151-74.474179 20.260439-95.216595 53.890374-1.450025 2.963495-3.868097 7.957229-7.632841 12.17939-15.142885 18.067494-49.028647 17.134239-62.235436 1.385557-4.860704-5.317099-7.407714-10.665921-9.049097-14.303774-20.810978-33.374108-56.598043-53.378721-95.637174-53.506635-20.812001 0-38.624692 3.897773-52.991911 11.56643l-0.028653 0-0.033769 0c-36.85028 19.615757-59.753919 57.757448-59.783595 99.501178 0 12.338003 2.058892 24.772196 6.182816 36.883025 0.289596 0.86981 0.545422 1.833765 0.771573 2.835581l79.94989 189.017958c1.641383 4.831029 6.606465 19.552312 31.471782 19.552312L778.07445 722.222141c10.213619-0.60989 27.800159-2.412956 34.047444-20.805862l74.862012-186.411597c0.289596-1.352811 0.64366-2.645247 0.968048-3.707438 4.1536-12.144598 6.212492-24.481577 6.212492-36.719296C894.235053 433.316196 871.718223 395.372002 835.445088 375.529071L835.445088 375.529071zM859.602278 272.158772c-17.811668 0-32.209586-14.395872-32.209586-32.208563l0.064468-175.75284c0-9.983375-8.148587-18.10331-18.101263-18.131963l-606.069469-0.38988c-9.986445 0-18.101263 8.052396-18.101263 17.975397l-0.227174 172.718737c-0.033769 17.784038-14.465456 32.150234-32.213679 32.150234l-0.063445 0c-17.778922-0.033769-32.180933-14.464433-32.146141-32.278147l0.227174-172.624593c0-45.417399 37.010939-82.363869 82.524528-82.363869l606.161566 0.38374c45.455261 0.098237 82.432431 37.142945 82.432431 82.594113l-0.064468 175.71907C891.81698 257.762901 877.385293 272.158772 859.602278 272.158772L859.602278 272.158772zM763.904729 497.6402 248.511445 497.6402c-17.777899 0-32.213679 14.431687-32.213679 32.213679 0 17.783015 14.435781 32.213679 32.213679 32.213679l515.393283 0c17.812691 0 32.209586-14.430664 32.209586-32.213679C796.113291 512.071887 781.71742 497.6402 763.904729 497.6402L763.904729 497.6402zM763.904729 497.6402"  horiz-adv-x="1024" />

    
    <glyph glyph-name="weibo" unicode="&#58927;" d="M511.9091 834c-248.4774 0-449.9091-201.4317-449.9091-449.9118 0-248.4747 201.4317-449.9064 449.9091-449.9064s449.9064 201.4317 449.9064 449.9064C961.8155 632.5683 760.3865 834 511.9091 834zM470.1932 159.8424c-114.9885 0-232.5267 55.7262-232.5267 147.384 0 47.9187 30.3588 103.3317 82.6425 155.6262 69.8121 69.7932 151.2243 101.5857 181.8423 70.9488 13.5099-13.4901 14.8176-36.8676 6.1344-64.7694-4.5261-14.0562 13.1922-6.273 13.1922-6.3036 56.4282 23.625 105.6582 25.0173 123.651-0.693 9.6021-13.7007 8.6832-32.9121-0.1665-55.1763-4.0932-10.2564 1.2591-11.8458 9.0648-14.1894 31.7952-9.8568 67.1823-33.6978 67.1823-75.7098C721.2086 247.42499999999995 620.936 159.8424 470.1932 159.8424zM678.365 451.2813c3.7188 11.4894 1.3887 24.5853-7.281 34.1955-8.6616 9.5913-21.4623 13.2309-33.2676 10.7352l0 0.0207c-9.8469-2.1429-19.5534 4.1778-21.6648 14.0157-2.1168 9.8793 4.1742 19.5939 14.0445 21.6972 24.1497 5.1345 50.3127-2.331 68.0292-21.987 17.7543-19.6533 22.5018-46.4256 14.913-69.9111-3.0978-9.6156-13.3983-14.85-23.0004-11.7765-9.5994 3.1077-14.8491 13.4208-11.7549 23.0103L678.365 451.2813zM784.8233 416.9022c-0.0063-0.0189-0.0063-0.0612-0.0063-0.0819-3.6126-11.1393-15.5835-17.2395-26.7183-13.6341-11.1789 3.609-17.2872 15.5538-13.6791 26.7201l-0.0063 0.0072c11.0736 34.2783 4.0509 73.3815-21.8034 102.0492-25.8777 28.6704-64.0341 39.6216-99.2925 32.1345-11.4687-2.4453-22.7466 4.8753-25.1919 16.3323-2.4552 11.4471 4.8555 22.7295 16.3242 25.1838l0.0207 0c49.5603 10.5372 103.2552-4.8483 139.6593-45.2088C790.5437 520.0862999999999 800.3591 465.1197 784.8233 416.9022zM624.9716 325.7178c-5.9481 60.2181-85.1571 101.6946-176.9229 92.6217-91.746-9.0729-161.3214-65.2491-155.3616-125.4789 5.9607-60.2451 85.1661-101.7216 176.922-92.6667C561.3767 209.2722 630.9224 265.4538 624.9716 325.7178zM528.5546 276.2727c-18.7254-42.3549-72.5859-64.9359-118.2789-50.1993-44.1153 14.238-62.7912 57.7944-43.4763 97.0326 18.9648 38.4714 68.3154 60.2316 111.978 48.8727C523.9646 360.2994 547.0235 317.67269999999996 528.5546 276.2727zM435.1877 308.5386c-14.2074 5.9562-32.5737-0.1683-41.3415-13.9167-8.8758-13.8078-4.7115-30.2517 9.3969-36.6759 14.3136-6.5358 33.318-0.3312 42.1947 13.8285C454.1525 286.07370000000003 449.5634 302.41139999999996 435.1877 308.5386zM470.2067 323.0565c-5.4522 2.1636-12.2688-0.4554-15.4656-5.8185-3.1059-5.3901-1.3923-11.529 4.0716-13.7772 5.5584-2.2878 12.6522 0.3537 15.8616 5.8374C477.737 314.8242 475.7462 321.03060000000005 470.2067 323.0565z"  horiz-adv-x="1024" />

    
    <glyph glyph-name="fabuxinxi" unicode="&#58892;" d="M715.167724 66.998159 209.044572 66.998159c-16.346293 0-29.573549 13.227256-29.573549 29.573549 0 16.346293 13.227256 29.572526 29.573549 29.572526l506.123153 0c16.346293 0 29.572526-13.227256 29.572526-29.572526C744.74025 80.224392 731.514017 66.998159 715.167724 66.998159zM770.125407-86.065935 154.027537-86.065935c-48.923246 0-88.719624 39.797401-88.719624 88.719624L65.307913 765.347335c0 48.923246 39.797401 88.719624 88.719624 88.719624l417.143609 0c16.346293 0 29.572526-13.227256 29.572526-29.572526 0-16.346293-13.227256-29.573549-29.572526-29.573549L154.027537 794.920884c-16.317641 0-29.573549-13.255908-29.573549-29.573549l0-762.693646c0-16.317641 13.255908-29.572526 29.573549-29.572526l616.09787 0c16.317641 0 29.572526 13.254885 29.572526 29.572526L799.697933 238.083699c0 16.346293 13.229303 29.572526 29.573549 29.572526 16.347317 0 29.572526-13.227256 29.572526-29.572526l0-235.43001C858.845031-46.269557 819.049676-86.065935 770.125407-86.065935zM393.933489 214.517981c-7.826246 0-15.595186 3.146667-21.140483 8.691963-10.04989 10.04989-10.04989 10.04989-4.043083 82.685187l6.439666 76.878948c3.234671 39.073924 27.522844 91.462085 55.276954 119.216195l282.9677 282.995329c33.355689 33.327036 92.0116 33.415041 125.455293 0.029676l95.708805-95.766111c34.597983-34.597983 34.597983-90.856287 0-125.455293L651.60199 280.854828c-27.753087-27.753087-80.141248-52.04126-119.216195-55.304583l-76.878948-6.383384C418.452929 216.077499 397.745305 214.517981 393.933489 214.517981zM776.16189 751.745549c-7.941879 0-15.364943-3.060709-20.909216-8.578376l-282.9677-282.995329c-18.194384-18.225083-36.042891-56.662511-38.150902-82.308611L427.694407 300.985308c-0.722454-8.894577-1.415232-17.358343-2.022053-24.923646 7.567349 0.606821 16.029068 1.300622 24.923646 2.050706l76.878948 6.381337c25.6461 2.137687 64.084551 19.98517 82.308611 38.180578l282.996352 282.939047c11.524474 11.522428 11.524474 30.29498 0 41.818431l-95.767134 95.794763C791.526833 748.68484 784.10377 751.745549 776.16189 751.745549z"  horiz-adv-x="1024" />

    
    <glyph glyph-name="location" unicode="&#58910;" d="M511.998 832.486c-200.688 0-363.371-150.581-363.371-336.355 0-280.296 302.807-560.618 363.371-560.618 60.567 0 363.373 280.322 363.373 560.618 0 185.774-162.684 336.355-363.373 336.355zM511.998 294.304c-100.343 0-181.697 80.316-181.697 179.394s81.354 179.394 181.697 179.394c100.345 0 181.674-80.316 181.674-179.394s-81.329-179.394-181.674-179.394z"  horiz-adv-x="1024" />

    
    <glyph glyph-name="dingdan" unicode="&#59191;" d="M800.037628-32.016126 223.962372-32.016126c-52.980346 0-95.983874 43.003528-95.983874 95.983874l0 639.892491c0 52.980346 43.003528 95.983874 95.983874 95.983874l575.903242 0c52.980346 0 95.983874-43.003528 95.983874-95.983874l0-639.892491C896.021502 11.159415 852.84596-32.016126 800.037628-32.016126zM223.962372 736.026877c-17.545439 0-31.994625-14.449185-31.994625-31.994625l0-639.892491c0-17.717453 14.449185-31.994625 31.994625-31.994625l575.903242 0c17.717453 0 31.994625 14.277171 31.994625 31.994625l0 639.892491c0 17.545439-14.277171 31.994625-31.994625 31.994625L223.962372 736.026877zM640.924576 351.231312 287.779607 351.231312c-17.717453 0-31.994625 14.277171-31.994625 31.994625 0 17.717453 14.277171 31.994625 31.994625 31.994625l353.144969 0c17.717453 0 31.994625-14.277171 31.994625-31.994625C672.9192 365.508483 658.642029 351.231312 640.924576 351.231312zM734.84428 160.467663l-447.236687 0c-17.717453 0-31.994625 14.277171-31.994625 31.994625s14.277171 31.994625 31.994625 31.994625l447.236687 0c17.717453 0 31.994625-14.277171 31.994625-31.994625S752.561734 160.467663 734.84428 160.467663zM255.784982 590.674954c0-26.490173 21.501764-47.991937 47.991937-47.991937s47.991937 21.501764 47.991937 47.991937-21.501764 47.991937-47.991937 47.991937S255.784982 617.165127 255.784982 590.674954zM463.061986 590.674954c0-26.490173 21.501764-47.991937 47.991937-47.991937s47.991937 21.501764 47.991937 47.991937-21.501764 47.991937-47.991937 47.991937S463.061986 617.165127 463.061986 590.674954zM671.199059 590.674954c0-26.490173 21.501764-47.991937 47.991937-47.991937s47.991937 21.501764 47.991937 47.991937-21.501764 47.991937-47.991937 47.991937S671.199059 617.165127 671.199059 590.674954z"  horiz-adv-x="1024" />

    
    <glyph glyph-name="xiaoxi" unicode="&#58994;" d="M64.004221 831.978894l0-703.571107 511.781012 0 255.698636-191.93438L831.48387 128.407788 959.44524 128.407788 959.44524 831.978894 64.004221 831.978894zM767.569188 512.180358 255.87925 512.180358 255.87925 640.108982l511.689938 0L767.569188 512.180358zM767.569188 320.26235 255.87925 320.26235 255.87925 448.190975l511.689938 0L767.569188 320.26235z"  horiz-adv-x="1024" />

    
    <glyph glyph-name="shouji" unicode="&#58928;" d="M514.553 81.18299999999999c-28.167 0-51.083-22.914-51.083-51.084 0-28.167 22.916-51.084 51.083-51.084 28.169 0 51.086 22.915 51.086 51.084-0.001 28.17-22.917 51.084-51.086 51.084zM767.288 885.26h-505.468c-42.523 0-77.118-34.595-77.118-77.118v-848.284c0-42.524 34.595-77.118 77.118-77.118h505.467c42.523 0 77.117 34.594 77.117 77.118v848.284c0.001 42.523-34.593 77.118-77.116 77.118zM261.82 833.847h505.467c14.175 0 25.707-11.533 25.707-25.707v-635.529h-556.879v635.53c0 14.174 11.532 25.706 25.706 25.706zM767.288-65.846h-505.468c-14.174 0-25.707 11.531-25.707 25.706v156.941h556.88v-156.942c0.001-14.175-11.531-25.705-25.706-25.705z"  horiz-adv-x="1024" />

    
    <glyph glyph-name="weibiao" unicode="&#58912;" d="M943.85796741 594.2330153099999l-497.1026963-497.10269629c-18.64135111-18.64135111-44.53211653-22.78387358-67.31599013-13.46319804-7.24941431 3.10689185-14.49882864 7.24941431-20.71261234 13.46319804L80.14203259 375.71495505999997c-23.81950419 23.81950419-23.81950419 64.20909827 0 88.02860247 23.81950419 23.81950419 64.20909827 23.81950419 88.02860247 0L403.25878518 228.65540740999995l453.60621037 453.60621037c23.81950419 23.81950419 63.17346765 23.81950419 88.02860248 0C968.71310222 657.4064829700001 968.71310222 618.0525195 943.85796741 594.2330153099999z"  horiz-adv-x="1024" />

    
    <glyph glyph-name="shouhuodizhi" unicode="&#58903;" d="M511.99712-95.99984625000002C452.14485031-96.30896718999998 151.99837719 353.48258063000003 151.99837719 503.99933719 151.99837719 702.81954375 313.17499438 864 511.99712 864c198.82020562 0 360.00258281-161.18045625 360.00258281-360.00066281C872.00162281 355.50050437000004 570.91242875-96.30896718999998 511.99712-95.99984625000002zM511.99712 804.00180937c-165.68478469 0-300.00055219-134.3176875-300.00055219-300.00055218 0-125.42999063 250.12270031-510.25437844 300.00055219-510.00093844 49.09641-0.25344 299.99863219 386.24711063 299.99863219 510.00093844C811.99767219 669.68412281 677.68190469 804.00180937 511.99712 804.00180937zM511.99712 353.99906156c-82.84239281 0-150.00027563 67.15788375-150.00027563 150.00027563 0 82.84239281 67.15788375 150.00027563 150.00027563 150.00027562 82.84239281 0 150.00027563-67.15788375 150.00027563-150.00027562C661.99739562 421.15694531 594.83951281 353.99906156 511.99712 353.99906156zM511.99712 593.9975831300001c-49.70505187 0-90.00208594-40.28935406-90.00208594-89.99824594 0-49.70697188 40.29511406-89.99632594 90.00208594-89.99632594s90.00016594 40.28935406 90.00016594 89.99632594C601.99728594 553.70822906 561.70409188 593.9975831300001 511.99712 593.9975831300001z"  horiz-adv-x="1024" />

    
    <glyph glyph-name="gouwucheyes" unicode="&#58936;" d="M352.972955 64.13976100000002c-35.434907 0-63.989249-28.554342-63.989249-63.989249 0-35.434907 28.554342-63.989249 63.989249-63.989249s63.989249 28.554342 63.989249 63.989249C416.962204 35.585419 388.407862 64.13976100000002 352.972955 64.13976100000002L352.972955 64.13976100000002zM801.069713 64.13976100000002c-35.434907 0-63.989249-28.554342-63.989249-63.989249 0-35.434907 28.554342-63.989249 63.989249-63.989249s63.989249 28.554342 63.989249 63.989249C865.058962 35.585419 836.332605 64.13976100000002 801.069713 64.13976100000002L801.069713 64.13976100000002zM937.304888 707.472535C920.963548 726.050059 898.429699 736.026877 874.003696 736.026877L232.907106 736.026877l-2.236183 13.073072c-5.676466 46.615824-46.615824 82.910801-93.231648 82.910801L97.015958 832.010751c-17.717453 0-31.994625-14.277171-31.994625-31.994625s14.277171-31.994625 31.994625-31.994625l40.251302 0c13.933143 0 28.210314-12.729044 29.930455-28.210314l30.96254-178.550647 54.356459-382.043339c5.676466-46.615824 46.099782-83.082815 92.371577-83.082815l520.17067 0c17.717453 0 31.994625 14.277171 31.994625 31.994625s-14.277171 31.994625-31.994625 31.994625L344.716278 160.12363500000004c-13.589115 0-27.006215 12.55703-28.898371 27.522258l-5.332437 37.327062 507.61364 31.306568c46.099782 0 86.695112 36.466991 92.027549 81.362674L960.870821 625.937846C964.483118 656.728372 956.054426 686.486813 937.304888 707.472535z"  horiz-adv-x="1024" />

    
    <glyph glyph-name="home" unicode="&#58893;" d="M592.795141-46.07615199999998L592.795141 209.61429799999996 432.057273 209.61429799999996l0-256.372995c-5.02341-0.258896-9.030677-0.647753-13.038968-0.647753-75.894528 0-151.827941-0.040932-227.727585 0-26.079982 0-43.617403 16.727986-43.733037 44.430932-0.527003 105.19997-0.366344 210.486922 0.116657 315.686892 0 5.547343 4.213975 12.641925 8.465812 16.428158 68.686359 60.686151 137.733944 120.984469 206.664873 181.329858 45.884027 40.168862 91.729168 80.340793 137.612171 120.467699 3.565199 3.097548 7.213285 6.106068 11.703553 9.939373 27.377534-23.916712 54.633295-47.699372 81.849146-71.526033 89.782839-78.580706 179.449022-157.332305 269.476431-235.612159 9.679453-8.383948 13.809517-16.898879 13.727653-30.446429-0.565888-99.871615-0.406253-199.778023-0.200568-299.602565 0.037862-18.152429-4.213975-33.936927-19.321044-43.959188-5.467525-3.64911-12.392238-6.79373-18.668175-6.835685-80.551594-0.429789-161.103188-0.210801-241.609757-0.169869C596.199681-47.277514 594.978876-46.717764999999986 592.795141-46.07615199999998L592.795141-46.07615199999998zM713.76426 661.81433c0 42.192961-0.039909 81.158415 0 120.084982 0.037862 24.858154 5.627161 30.79333 28.995381 30.835286 36.287461 0 72.573899 0.040932 108.86136-0.041956 18.711154-0.047072 25.186635-7.052626 25.230638-28.085662 0.083911-83.307358 0.282433-166.663834-0.24457-249.971192-0.081864-12.859889 3.321652-21.1149 12.834306-29.287023 39.774889-33.978882 78.772065-68.901253 117.974925-103.609753 19.23304-17.033955 19.721157-25.329898 3.521197-45.591361-9.797134-12.300141-19.393699-24.816199-29.278837-37.075407-12.147668-15.178701-22.193465-16.126282-36.730553-3.221368-139.192156 123.352399-278.385335 246.787686-417.621493 370.181017-4.818749 4.256954-9.758248 8.432043-15.391549 13.33675-31.302937-27.702945-62.36642-55.099922-93.348038-82.579787C305.578674 516.6583459999999 192.588273 416.493042 79.596849 316.36866999999995c-15.307637-13.589506-24.821315-12.777001-37.699624 3.225461-10.656711 13.289678-21.262256 26.66736-31.751145 40.079834-12.231579 15.656585-11.743462 25.765827 3.037173 38.9675 63.054081 56.042387 126.274962 111.870904 189.450816 167.782308 84.193541 74.5366 168.470993 148.983149 252.626671 223.647663 38.187741 33.849946 75.366502 33.849946 113.639177-0.257873 45.235251-40.297798 90.597391-80.429821 135.910413-120.597659C706.96132 667.318694 709.227943 665.5586069999999 713.76426 661.81433L713.76426 661.81433zM713.76426 661.81433"  horiz-adv-x="1024" />

    
    <glyph glyph-name="moban" unicode="&#58911;" d="M880.772948 34.875554l0-16.623609c0-80.719416-131.784442-80.719416-284.407492-80.719416l-168.754448 0c-158.874427 0-284.383956 0-284.383956 80.719416l0 16.623609c0 154.426115 127.546931 280.028764 284.383956 280.028764l168.754448 0C753.191224 314.904319 880.772948 189.265854 880.772948 34.875554zM748.501412 589.122751c0-133.092227-109.88262-241.345744-244.948805-241.345744-135.052882 0-244.948805 108.291378-244.948805 241.345744 0 133.066645 109.895923 241.345744 244.948805 241.345744C638.618792 830.467471 748.501412 722.213955 748.501412 589.122751z"  horiz-adv-x="1024" />

    
    <glyph glyph-name="shouye" unicode="&#58919;" d="M387.543454 685.770951c17.253966 0 31.234375 13.980409 31.234375 31.234375L418.777829 731.398128l187.403181 0 0-14.393825c0-17.253966 13.980409-31.234375 31.234375-31.234375s31.233352 13.980409 31.233352 31.234375L668.648736 800.295288c0 17.253966-13.980409 31.233352-31.233352 31.233352s-31.234375-13.980409-31.234375-31.233352l0-6.42841L418.777829 793.866878l0 6.42841c0 17.253966-13.980409 31.233352-31.234375 31.233352-17.253966 0-31.233352-13.980409-31.233352-31.233352l0-83.289961C356.310102 699.751361 370.290511 685.770951 387.543454 685.770951zM401.005047 584.982454c-17.253966 0-31.234375-13.980409-31.234375-31.234375L369.770671 523.278113c0-17.253966 13.980409-31.234375 31.234375-31.234375s31.233352 13.980409 31.233352 31.234375l0 30.470989C432.239422 571.003068 418.259012 584.982454 401.005047 584.982454zM623.952768 584.982454c-17.253966 0-31.233352-13.980409-31.233352-31.234375L592.719416 523.278113c0-17.253966 13.980409-31.234375 31.233352-31.234375s31.234375 13.980409 31.234375 31.234375l0 30.470989C655.187143 571.003068 641.206734 584.982454 623.952768 584.982454zM546.344203 434.771337c-0.132006-0.193405-13.614066-19.754926-34.172287-19.754926-19.989263 0-32.423457 18.098193-33.267685 19.36914-9.17087 14.427594-28.254507 18.809391-42.834574 9.770528-14.650675-9.109472-19.155269-28.367071-10.055007-43.017746 11.214413-18.047028 41.970904-48.589648 86.157265-48.589648 43.963281 0 75.105558 30.318516 86.574774 48.223305 9.222035 14.396895 5.03262 33.358759-9.242502 42.763966C575.199391 452.929906 555.912116 448.934918 546.344203 434.771337zM758.781546 793.899624c-17.253966 0-31.234375-13.980409-31.234375-31.233352s13.980409-31.233352 31.234375-31.233352c41.827641 0 75.857688-34.864042 75.857688-77.708849l0-577.389266c0-42.844807-34.030048-77.708849-75.857688-77.708849l-492.614487 0.061398c-41.818431 0-75.847455 34.864042-75.847455 77.708849L190.319603 653.784446c0 42.844807 34.030048 77.708849 75.847455 77.708849 17.253966 0 31.233352 13.980409 31.233352 31.233352s-13.980409 31.233352-31.233352 31.233352c-76.264964 0-138.315182-62.884213-138.315182-140.176576l0-577.389266c0-77.29134 62.051241-140.176576 138.315182-140.176576l492.614487-0.061398c76.275197 0 138.325415 62.884213 138.325415 140.176576L897.106961 653.724071C897.106961 731.015412 835.056744 793.899624 758.781546 793.899624zM252.196883 102.739175c0-17.253966 13.980409-31.234375 31.233352-31.234375l458.096323 0c17.253966 0 31.233352 13.980409 31.233352 31.234375s-13.980409 31.233352-31.233352 31.233352L283.431258 133.972527C266.177292 133.972527 252.196883 119.993141 252.196883 102.739175z"  horiz-adv-x="1024" />

    
    <glyph glyph-name="liebiaotow" unicode="&#58957;" d="M890.92096 148.20454400000006L383.327232 148.20454400000006c-19.218432 0-34.801664-15.584256-34.801664-34.842624 0-19.219456 15.584256-34.802688 34.801664-34.802688L890.92096 78.55923199999995c19.262464 0 34.843648 15.584256 34.843648 34.802688C925.764608 132.621312 910.183424 148.20454400000006 890.92096 148.20454400000006zM890.92096 418.475008L383.327232 418.475008c-19.218432 0-34.801664-15.58528-34.801664-34.842624 0-19.258368 15.584256-34.803712 34.801664-34.803712L890.92096 348.828672c19.262464 0 34.843648 15.545344 34.843648 34.803712C925.764608 402.890752 910.183424 418.475008 890.92096 418.475008zM383.327232 619.0591999999999L890.92096 619.0591999999999c19.262464 0 34.843648 15.583232 34.843648 34.842624 0 19.258368-15.582208 34.843648-34.843648 34.843648L383.327232 688.7454720000001c-19.218432 0-34.801664-15.58528-34.801664-34.843648C348.524544 634.642432 364.1088 619.0591999999999 383.327232 619.0591999999999zM220.051456 731.907072l-86.322176 0c-19.260416 0-34.8416-15.58528-34.8416-34.803712l0-86.361088c0-19.219456 15.582208-34.884608 34.8416-34.884608l86.322176 0c19.260416 0 34.843648 15.666176 34.843648 34.884608l0 86.361088C254.895104 716.321792 239.310848 731.907072 220.051456 731.907072zM220.051456 461.67552l-86.322176 0c-19.260416 0-34.8416-15.624192-34.8416-34.88256l0-86.322176c0-19.258368 15.582208-34.842624 34.8416-34.842624l86.322176 0c19.260416 0 34.843648 15.58528 34.843648 34.842624l0 86.322176C254.895104 446.051328 239.310848 461.67552 220.051456 461.67552zM220.051456 191.40812800000003l-86.322176 0c-19.260416 0-34.8416-15.58528-34.8416-34.842624l0-86.36416c0-19.218432 15.582208-34.801664 34.8416-34.801664l86.322176 0c19.260416 0 34.843648 15.584256 34.843648 34.801664l0 86.36416C254.895104 175.82284800000002 239.310848 191.40812800000003 220.051456 191.40812800000003z"  horiz-adv-x="1024" />

    
    <glyph glyph-name="shangpingyes" unicode="&#58955;" d="M869.7993875 832.41495498L155.50186045 832.41495498c-50.74956738 0-91.99589151-41.24544609-91.99589151-91.99589151l0-714.42404912c0-50.74956738 41.24544609-91.99501348 91.99589151-91.99501347l714.36078809 0c50.74956738 0 91.99501348 41.24544609 91.99501347 91.99501347L961.85766201 740.48232364C961.79615791 791.23276992 920.54807685 832.41495498 869.7993875 832.41495498zM788.44719834 577.1462112300001l-1.89959414-1.01393701-0.25392393-2.15351807C766.71432881 438.83606748 649.06073457 336.8932248 512.65018497 336.8932248c-136.40879268 0-254.06502276 101.94284268-273.64261729 237.08553135l-0.31630606 2.15351807-1.90135195 1.01393701c-13.55899131 8.04647724-21.66872959 21.66872959-21.66872959 36.621225 0 23.69572559 19.26128847 42.95701318 43.0202751 42.95701318 23.69572559 0 42.95701318-19.26128847 42.95701318-42.95701318 0-12.48179326-5.63903613-24.13943261-15.96643242-32.6919999l-2.02787403-1.58416699 0.44370703-2.5348421c18.05668945-113.3465581 114.42463506-195.58616221 229.10231514-195.5861622 114.67855898 0 211.04562656 82.30198623 229.10231514 195.5861622l0.44458594 2.47158106-1.96461299 1.58416699c-10.39065732 8.61670722-15.96643242 20.21108555-15.96643243 32.69287882 0 23.69572559 19.26128847 42.95701318 42.95701318 42.95701318l0 0 0 0 0 0c23.75898662 0 43.0202751-19.26040957 43.0202751-42.95701318C810.17918896 598.81406279 802.06945068 585.19181045 788.44719834 577.1462112300001z"  horiz-adv-x="1024" />

    
    <glyph glyph-name="meironghufu" unicode="&#58945;" d="M512 831.094758c-219.124649 0-397.390729-178.26608-397.390729-397.390729 0-106.829074 42.034349-228.717122 112.432699-326.047868 79.640852-110.106724 180.842765-170.749896 284.95803-170.749896s205.317179 60.643172 284.95803 170.749896c70.39835 97.330746 112.432699 219.218794 112.432699 326.047868C909.390729 652.828678 731.124649 831.094758 512 831.094758zM512 13.745305c-169.624259 0-320.55169 234.844679-320.55169 419.958724 0 176.75261 143.798057 320.55169 320.55169 320.55169s320.55169-143.798057 320.55169-320.55169C832.550667 248.589984 681.624259 13.745305 512 13.745305zM442.589141 433.278333c0 36.661991-43.172265 63.269999-102.639658 63.269999s-102.627379-26.606984-102.627379-63.269999c0-36.655851 43.159986-63.257719 102.627379-63.257719S442.589141 396.622482 442.589141 433.278333zM339.949482 421.247322c-25.637913 0-42.846854 7.166213-49.349965 12.037151 6.503111 4.870938 23.699772 12.037151 49.349965 12.037151s42.859134-7.166213 49.362244-12.037151C382.808616 428.413536 365.599675 421.247322 339.949482 421.247322zM684.024935 496.548332c-59.467393 0-102.627379-26.606984-102.627379-63.269999 0-36.655851 43.159986-63.257719 102.627379-63.257719s102.639658 26.600845 102.639658 63.257719C786.665617 469.941348 743.493352 496.548332 684.024935 496.548332zM684.024935 421.247322c-25.637913 0-42.846854 7.166213-49.349965 12.037151 6.503111 4.870938 23.699772 12.037151 49.349965 12.037151s42.859134-7.166213 49.362244-12.037151C726.885092 428.413536 709.676152 421.247322 684.024935 421.247322zM512 208.125387c-50.838875 0-90.658789-30.046317-90.658789-68.397786s39.819914-68.397786 90.658789-68.397786c50.825572 0 90.64651 30.046317 90.64651 68.397786S562.825572 208.125387 512 208.125387zM512 122.557546c-25.613354 0-39.433104 12.187577-39.433104 17.171078s13.81975 17.171078 39.433104 17.171078c25.601074 0 39.419801-12.187577 39.419801-17.171078S537.600051 122.557546 512 122.557546zM488.087381 240.129288l47.811936 0c14.145162 0 25.613354 11.468193 25.613354 25.613354 0 14.145162-11.468193 25.613354-25.613354 25.613354l-47.811936 0c-14.145162 0-25.613354-11.468193-25.613354-25.613354C462.474027 251.598504 473.943242 240.129288 488.087381 240.129288z"  horiz-adv-x="1024" />

    
    <glyph glyph-name="jiankangxian" unicode="&#58939;" d="M557.28933091 513.66404665l-87.92989126 0 0-98.2094518L373.25619769 415.45459485l0-91.93855887 96.10324196 0 0-100.30285483 87.92989126 0 0 98.84748573 96.11488484 0L653.40421575 415.45459485l-96.11488484 0L557.28933091 513.66404665zM686.31534478 569.7364969299999c-49.96921458 0-106.84502813 48.40673166-170.55991125 52.01488099l0 0.34346667c-1.24113806 0-2.48344121-0.13040071-3.71293639-0.16649444-1.23066027 0.03609259-2.46015545 0.16649443-3.70362255 0.16649444l0-0.34346667c-63.72536093-3.60815047-120.60233842-52.01488099-170.58203192-52.01488099-27.62290062 0-44.9289819-76.86792419-41.581634-161.80557597 2.64993565 67.21591751 18.50181291 120.94580622 41.581634 120.94580622 49.97969351 0 106.85667101 48.39508765 170.58203192 52.00323812l0 0.35510955c1.24230315 0 2.47296227-0.14204359 3.70362255-0.17697338 1.23066027 0.03492864 2.47179833 0.17697337 3.71293639 0.17697338l0-0.35510955c63.71604707-3.60815047 120.59069554-52.00323811 170.55991125-52.00323812 23.10310685 0 38.94217614-53.72988757 41.56882603-120.94580622C731.25480448 492.86740878 713.9487232 569.7364969299999 686.31534478 569.7364969299999zM511.99359659 820.08554723c-240.82628153 0-436.08554723-195.24762283-436.08554724-436.08554723S271.16731506-52.085547229999975 511.99359659-52.085547229999975c240.85073123 0 436.0983552 195.24645888 436.0983552 436.08554723S752.84432782 820.08554723 511.99359659 820.08554723zM683.35687111 200.87851007999996c-74.64412046-71.85330517-143.79975339-92.3774976-167.12873301-97.36999481l0-1.49029774c0 0-1.47865486 0.18978019-4.18680491 0.66248362-2.69650717-0.47270343-4.16351915-0.66248363-4.16351914-0.66248362l0 1.49029774c-23.36390827 4.99249721-92.50789945 25.51669077-167.12873302 97.36999481-101.0480037 97.25007303-83.57659193 403.09291918-25.09055886 403.09291918 56.32044487 0 120.40208043 57.76416995 192.21929188 61.845025l0 0.39003932c1.39482567 0 2.76752953-0.15368647 4.16351914-0.20142307 1.39598962 0.04773661 2.77917241 0.20142307 4.18680491 0.20142307l0-0.39003932c71.78228281-4.0808539 135.87556125-61.84502499 192.18319815-61.845025C766.92065507 603.97142813 784.38158791 298.12858311 683.35687111 200.87851007999996z"  horiz-adv-x="1024" />

    
    <glyph glyph-name="dianhua" unicode="&#58931;" d="M506.189667 240.322693c3.924379-7.848759 11.773138-11.773138 19.621896-15.697517 19.621896-15.697517 39.243793-11.773138 47.092551-7.848759l39.243793 58.865689 0 0c7.848759 7.848759 15.697517 11.773138 23.546276 19.621896 7.848759 3.924379 15.697517 7.848759 27.470655 7.848759l0 0c7.848759 3.924379 19.621896 0 27.470655 0l3.924379 0c7.848759-3.924379 15.697517-7.848759 23.546276-15.697517L863.306134 173.609269l3.924379 0c7.848759-7.848759 11.773138-15.697517 15.697517-23.546276l0 0c3.924379-7.848759 7.848759-19.621896 7.848759-27.470655 0-11.773138 0-23.546276-3.924379-31.395034l0 0c-3.924379-11.773138-11.773138-19.621896-19.621896-27.470655-7.848759-7.848759-19.621896-15.697517-35.319413-23.546276l0-3.924379c-11.773138-7.848759-31.395034-15.697517-47.092551-19.621896-82.411965-27.470655-168.747285-23.546276-251.158227 3.924379-7.848759 3.924379-19.621896 7.848759-27.470655 11.773138l0 62.790068c15.697517-3.924379 31.395034-11.773138 47.092551-15.697517 70.638827-23.546276 145.20101-31.395034 211.915457-7.848759 15.697517 3.924379 27.470655 11.773138 35.319413 15.697517l3.924379 3.924379c7.848759 3.924379 15.697517 11.773138 23.546276 15.697517 0 3.924379 3.924379 3.924379 3.924379 7.848759l0 0 0 0c0 0 0 0 0 3.924379 0 3.924379 0 3.924379 0 3.924379l0 0c0 3.924379-3.924379 3.924379-3.924379 3.924379l0 3.924379L682.785711 244.247072l0 0c-3.924379 0-3.924379 0-7.848759 0l0 0-3.924379 0 0 0c-3.924379 0-3.924379 0-3.924379 0l0 0 0 0c-3.924379 0-3.924379-3.924379-3.924379-3.924379l0 0 0 0-47.092551-62.790068c0-3.924379-3.924379-7.848759-7.848759-7.848759 0 0-47.092551-31.395034-102.032838-3.924379L506.189667 240.322693zM298.198589 742.64017l113.805976-145.20101 0-3.924379c3.924379-7.848759 7.848759-15.697517 11.773138-23.546276 0-7.848759 3.924379-19.621896 0-27.470655 0-11.773138-3.924379-19.621896-7.848759-27.470655l0-3.924379c-7.848759-7.848759-11.773138-11.773138-19.621896-19.621896l-3.924379 0-54.94131-39.243793c-3.924379-7.848759-7.848759-27.470655 7.848759-47.092551 23.546276-35.319413 51.016931-70.638827 82.410941-98.108458l0 0 0 0c23.546276-23.546276 51.016931-47.092551 78.487585-66.714448l0-74.563206c-3.924379 3.924379-11.773138 7.848759-15.697517 11.773138-39.243793 27.470655-74.563206 54.94131-105.957217 86.335321l0 0c-31.395034 31.395034-62.790068 66.714448-86.335321 105.957217-47.092551 62.790068-7.848759 117.730355-7.848759 117.730355 0 3.924379 3.924379 3.924379 7.848759 7.848759l58.865689 43.168172 3.924379 3.924379c0 0 0 0 3.924379 0l0 3.924379c0 0 0 0 0 3.924379l0 3.924379c0 3.924379 0 3.924379 0 3.924379l0 0 0 0L251.107061 707.32178l0 0c-3.924379 0-3.924379 0-3.924379 3.924379l-3.924379 0c0 0 0 0-3.924379 0l-3.924379 0 0 0c-3.924379 0-3.924379-3.924379-7.848759-3.924379-3.924379-7.848759-11.773138-15.697517-15.697517-23.546276-7.848759-11.773138-15.697517-23.546276-19.621896-39.243793-23.546276-66.714448-15.697517-141.27663 7.848759-211.915457 23.546276-78.487585 74.563206-153.049768 137.352251-215.839837 51.016931-51.016931 105.957217-94.184079 168.747285-121.654734l0-62.790068c-78.487585 31.395034-149.125389 82.410941-211.915457 141.27663-66.714448 70.638827-121.654734 153.049768-153.049768 239.386112-27.470655 82.410941-31.395034 168.747285-3.924379 251.158227 7.848759 19.621896 15.697517 35.319413 23.546276 47.092551l0 0 0 0c7.848759 15.697517 15.697517 27.470655 23.546276 35.319413 7.848759 7.848759 15.697517 15.697517 27.470655 19.621896l3.924379 0c7.848759 3.924379 15.697517 3.924379 27.470655 3.924379 11.773138 0 19.621896-3.924379 27.470655-7.848759l3.924379 0L298.198589 742.64017zM298.198589 742.64017 298.198589 742.64017 298.198589 742.64017 298.198589 742.64017zM298.198589 742.64017 298.198589 742.64017 298.198589 742.64017 298.198589 742.64017z"  horiz-adv-x="1024" />

    
    <glyph glyph-name="shangpin" unicode="&#58997;" d="M512.00080683 383.99791962999996c-110.10012451 0-201.97014873 79.48646279-221.26017655 184.09174453 12.85625391 9.04890498 21.26307217 23.98468096 21.26307216 40.89995595 0 27.61456817-22.3843043 50.00532539-49.99887246 50.00532539-27.61456817 0-49.99887246-22.39075722-49.99887246-50.00532539 0-20.00955146 11.76567451-37.27006787 28.74870615-45.25420693 21.64703379-130.17259424 135.03019043-229.73636602 271.2525961-229.73636601 136.21595273 0 249.59910849 99.56377177 271.24614228 229.73636601 16.98303252 7.98413818 28.74225322 25.24465547 28.74225323 45.25420693 0 27.61456817-22.37785049 50.00532539-49.99241953 50.00532539s-50.00532539-22.39075722-50.00532539-50.00532539c0-16.915275 8.41327119-31.85750391 21.26952597-40.89995595C713.96934278 463.4779295 622.10738428 383.99791962999996 512.00080683 383.99791962999996L512.00080683 383.99791962999996zM861.99452862 833.991l-24.96878438 0c-0.00645292 0-0.01935967 0-0.03226641 0L661.99742422 833.991c-0.00645292 0-0.01935967 0-0.03226641 0l-3.12008994 0c0.01935967-0.06937119 0.03710566-0.14519531 0.05001153-0.21456739-12.33839004-1.52455254-21.89870596-12.03025253-21.89870596-24.78486972 0-12.75461719 9.56031592-23.26031631 21.89870596-24.78486973-0.01935967-0.07582412-0.03226641-0.14519531-0.05001153-0.21456738l203.14784619 0c27.56455664 0 50.00532539-22.44076963 50.00532539-49.99887246l0-699.99551016c0-27.56455664-22.44076963-49.99887246-50.00532539-49.99887246L162.00547138-16.00112753999997c-27.56455664 0-49.99887246 22.43431582-49.99887245 49.99887246L112.00659893 733.99325508c0 27.55810283 22.43431582 49.99887246 49.99887245 49.99887245L340.15388135 783.9921275300001c-0.01935967 0.06937119-0.03065273 0.13874238-0.05001153 0.21456739 12.33839004 1.52455254 21.89870596 12.03025253 21.89870596 24.78486972 0 12.75461719-9.56031592 23.26031631-21.89870596 24.78486974 0.01290674 0.07582412 0.03065273 0.14519531 0.05001153 0.21456737l-3.11847715 0c-0.01290674 0-0.01935967 0-0.03226641 0L162.00547138 833.991c-0.0241998 0-0.04355948 0-0.06291737 0C106.81989365 833.95389521 62.00772646 789.12236836 62.00772646 733.99325508l0-699.99551016c0-55.14847295 44.84443271-99.99774492 99.99774492-99.99774492l699.98905635 0c55.154925 0 99.99774492 44.85088652 99.99774493 99.99774492L961.99227354 733.99325508C961.99227354 789.14656729 917.14945362 833.991 861.99452862 833.991L861.99452862 833.991zM861.99452862 833.991"  horiz-adv-x="1024" />

    
    <glyph glyph-name="shafa" unicode="&#58963;" d="M675.84 882.688q49.152 0 66.048-21.504t16.896-66.56l0-204.8q0-37.888-18.432-61.44t-69.632-23.552l-310.272 0q-49.152 0-68.608 22.528t-19.456 71.68l0 195.584q0 43.008 18.432 65.536t68.608 22.528l316.416 0zM714.752 449.536q24.576 0 34.304-12.288t9.728-32.768l0-82.944q0-21.504-11.264-35.328t-39.936-13.824l-384 0q-23.552 0-37.376 9.216t-13.824 38.912l0 84.992q0 44.032 49.152 44.032l393.216 0zM804.864 218.112l0 332.8q0 27.648 15.872 39.936t39.424 12.288l47.104 0q29.696 0 39.424-18.432t9.728-37.888l0-37.888 0-77.824 0-100.352 0-101.376 0-81.92 0-43.008q0-61.44-59.392-61.44l-35.84 0 0-90.112-65.536 0 0 90.112-559.104 0 0-90.112-64.512 0 0 90.112-40.96 0q-54.272 0-56.32 63.488l0 445.44q0 25.6 15.36 38.4t38.912 12.8l39.936 0q29.696 0 43.52-15.872t14.848-41.472l0-22.528q0-16.384-0.512-40.448t-0.512-52.736l0-58.368 0-153.6 578.56 0z"  horiz-adv-x="1024" />

    
    <glyph glyph-name="weixin" unicode="&#58964;" d="M571.648 384.06c-10.257 0-20.517-9.525-20.517-21.25 0-9.527 10.255-19.053 20.517-19.053 15.393 0 26.385 9.527 26.385 19.053 0 11.724-10.99 21.25-26.385 21.25v0zM504.225 483c16.123 0 26.385 10.257 26.385 25.651 0 16.123-10.261 25.649-26.385 25.649-15.39 0-30.048-9.527-30.048-25.649-0.001-15.396 14.659-25.651 30.048-25.651v0zM512.287 833.508c-248.427 0-449.813-201.386-449.813-449.813 0-248.425 201.386-449.812 449.813-449.812 248.425 0 449.812 201.386 449.812 449.812 0.001 248.427-201.385 449.813-449.812 449.813v0zM427.275 269.735c-27.119 0-46.906 4.394-72.556 11.725l-74.019-37.38 21.257 63.031c-52.035 36.64-82.818 82.811-82.818 139.243 0 99.67 93.808 175.889 208.137 175.889 101.135 0 191.279-60.097 208.867-145.113-7.328 1.469-13.926 2.199-19.788 2.199-99.67 0-176.619-74.75-176.619-164.894 0-15.388 2.199-29.313 5.863-43.972-5.863-0.728-12.461-0.728-18.324-0.728v0zM732.882 197.91499999999996l14.655-52.77-55.697 31.512c-21.252-4.394-41.773-10.99-63.025-10.99-98.206 0-175.889 67.422-175.889 150.968 0 83.547 77.685 150.97 175.889 150.97 93.072 0 176.619-67.423 176.619-150.97 0-46.9-31.512-88.673-72.552-118.721v0zM359.117 534.3c-15.39 0-31.512-9.527-31.512-25.649 0-15.395 16.122-25.656 31.512-25.656 14.66 0 26.385 10.261 26.385 25.656 0 16.122-11.725 25.649-26.385 25.649v0zM686.712 384.06c-10.995 0-20.522-9.525-20.522-21.25 0-9.527 9.527-19.053 20.522-19.053 14.655 0 25.649 9.527 25.649 19.053 0 11.724-10.994 21.25-25.649 21.25v0zM686.712 384.06z"  horiz-adv-x="1024" />

    
    <glyph glyph-name="kongjian" unicode="&#58969;" d="M512 834c-248.52568359 0-449.98154297-201.46376953-449.98154297-450s201.45498047-450 449.98154297-450 449.98154297 201.46376953 449.98154297 450-201.45498047 450-449.98154297 450zM759.75136719 243.75029297000003c-11.62177734-10.84746094-31.57382813 0.96855469-50.7515625 27.50712891-8.32939453-22.47011719-19.17685547-43.19736328-31.7671875-61.79501954 27.11865234-9.68554688 44.55351563-24.79570312 44.55351562-41.84384765 0-29.44423828-52.10771484-53.27138672-116.41816406-53.27138672-38.16035156 0-71.86552734 8.32939453-93.17197266 21.30820312-21.11396484-12.97880859-55.01337891-21.30820313-93.17197265-21.30820312-64.31132812 0-116.41816406 23.82626953-116.41816407 53.27138672 0 16.85302734 17.43398438 32.15566406 44.55351563 41.84384765-12.78457031 18.59677734-23.43867187 39.32402344-31.7671875 61.79501954-19.17685547-26.34521484-39.12802734-38.35634766-50.7515625-27.50712891-15.88447266 14.91591797-9.87978516 67.60722656 13.75224609 117.58447266 5.42373047 11.42929688 11.23505859 21.69580078 17.2397461 30.60615234 3.29326172 145.28583984 98.98417969 261.90263672 216.37001953 261.90263672h0.38759766c117.38583984 0 213.07763672-116.42167969 216.37001953-261.90263672 6.00556641-8.91123047 11.81601563-19.17861328 17.23974609-30.60615234 23.44042969-49.978125 29.63935547-102.66855469 13.75488281-117.58447266z"  horiz-adv-x="1024" />

    
    <glyph glyph-name="zaixianzixunyes" unicode="&#59044;" d="M512 833.71883789c-248.46298067 0-449.85941895-174.43298935-449.85941895-389.60637276 0-127.02905332 70.17806953-239.85941924 178.81911914-310.96532372l1.43392676-0.92783497 0-198.19119023 165.88566035 130.90909131c33.28959727-6.80412393 68.0412375-10.40299893 103.7207127-10.40299893 248.46298067 0 449.85941895 174.43298935 449.85941894 389.60637276C961.85941895 659.28584854 760.46298067 833.71883789 512 833.71883789zM652.58106875 299.79194033L371.41893125 299.79194033c-15.52015019 0-28.11621357 12.59606338-28.11621357 28.11621358 0 15.52015019 12.59606338 28.11621357 28.11621357 28.11621357l281.16213662 0c15.52015019 0 28.11621357-12.59606338 28.11621357-28.11621357C680.69728232 312.38800372000003 668.10121807 299.79194033 652.58106875 299.79194033zM708.8134959 468.48922178L315.1865041 468.48922178c-15.52015019 0-28.11621357 12.59606338-28.11621358 28.11621357 0 15.52015019 12.59606338 28.11621357 28.11621359 28.11621358l393.62699179 0c15.52015019 0 28.11621357-12.59606338 28.11621358-28.11621358C736.92970947 481.08528604 724.33364609 468.48922178 708.8134959 468.48922178z"  horiz-adv-x="1024" />

    
    <glyph glyph-name="weibiaoti" unicode="&#58913;" d="M838.4 416c-19.2 0-38.4-12.8-38.4-38.4 0-19.2 12.8-32 38.4-32 19.2 0 32 12.8 32 32C870.4 403.2 857.6 416 838.4 416zM851.2 236.79999999999995c-19.2 0-32-12.8-32-32l0-115.2c0-19.2-19.2-38.4-38.4-38.4L160 51.200000000000045c-19.2 0-38.4 19.2-38.4 38.4l0 576c0 19.2 19.2 38.4 38.4 38.4l620.8 0c19.2 0 38.4-19.2 38.4-38.4l0-121.6c0-19.2 12.8-32 32-32 19.2 0 32 12.8 32 32L883.2 678.4c0 51.2-44.8 96-96 96L153.6 774.4C108.8 768 64 729.6 64 678.4l0-582.4C64 38.39999999999998 108.8 0 153.6 0l633.6 0c51.2 0 96 44.8 96 89.6l0 115.2C883.2 224 870.4 236.79999999999995 851.2 236.79999999999995zM902.4 409.6l0-57.6c0-19.2-19.2-38.4-38.4-38.4L544 313.6C524.8 313.6 512 332.79999999999995 512 352L512 409.6C512 428.8 524.8 448 544 448l313.6 0C883.2 448 902.4 428.8 902.4 409.6zM870.4 505.6L544 505.6C492.8 505.6 454.4 473.6 448 422.4c0 0 0-6.4 0-6.4l0-70.4C448 294.4 492.8 256 544 256l326.4 0c51.2 0 89.6 44.8 89.6 89.6l0 64C960 467.2 915.2 505.6 870.4 505.6z"  horiz-adv-x="1024" />

    
    <glyph glyph-name="shouhuodizi" unicode="&#58917;" d="M800 396.8c0 0-19.2-57.6 0-64 25.6-6.4 89.6 19.2 89.6 19.2L889.6 64c0 0-224-96-243.2-89.6-19.2 6.4-243.2 102.4-268.8 89.6-19.2-12.8-243.2-64-243.2-64L134.4 281.6c0 0 102.4 25.6 108.8 44.8 12.8 25.6 6.4 76.8-64 44.8C102.4 339.20000000000005 64 307.20000000000005 64 307.20000000000005l0-358.4c0 0 19.2-57.6 64-44.8 44.8 12.8 243.2 89.6 243.2 89.6s236.8-83.2 268.8-89.6c32-6.4 313.6 83.2 313.6 108.8 0 96 6.4 384 0 403.2C953.6 435.2 844.8 409.6 800 396.8M441.6 665.6c0 38.4 32 70.4 64 70.4 38.4 0 64-32 64-70.4 0-38.4-32-70.4-64-70.4C473.6 595.2 441.6 627.2 441.6 665.6zM684.8 678.4c-6.4 38.4-32 70.4-64 89.6 0 0-6.4 6.4-6.4 6.4-6.4 0-12.8 6.4-19.2 6.4-6.4 0-6.4 6.4-12.8 6.4-6.4 0-12.8 0-12.8 6.4-6.4 0-12.8 6.4-19.2 6.4C537.6 806.4 524.8 806.4 512 806.4c0 0 0 0 0 0 0 0 0 0 0 0-12.8 0-25.6 0-38.4 0-25.6-6.4-44.8-12.8-64-25.6 0 0 0 0 0 0C403.2 774.4 396.8 768 390.4 761.6c0 0-6.4 0-6.4-6.4C384 755.2 377.6 748.8 371.2 748.8 371.2 742.4 364.8 742.4 364.8 736c0 0-6.4-6.4-6.4-6.4C352 723.2 352 716.8 345.6 710.4c0 0 0-6.4 0-6.4 0-6.4-6.4-12.8-6.4-19.2 0-6.4-6.4-19.2-6.4-32C332.8 499.2 512 288 512 288s172.8 211.2 172.8 364.8C684.8 659.2 684.8 672 684.8 678.4zM512 198.39999999999998c0 0-243.2 243.2-243.2 454.4C262.4 864 512 864 512 864s243.2 0 243.2-211.2C755.2 441.6 512 198.39999999999998 512 198.39999999999998z"  horiz-adv-x="1024" />

    
    <glyph glyph-name="sanjiao" unicode="&#58914;" d="M212.6572984 832.04573437L853.48408658 834 1497.66344947 828.31128984C1536.82175778 828.31128984 1571.24415709 826.19229698 1582.68147574 817.43554219 1610.29576177 796.29428555 1607.27825689 753.11325937 1582.68147574 728.62504424L900.84506783-17.973542579999958C887.84845436-31.02631377 870.5015441-36.60645175000002 853.43167301-35.76784071999998 836.35805778-36.60832383000002 819.06543229-31.02631377 806.01266109-17.973542579999958L124.17812701 728.6231704100001C99.63749742 753.11138818 96.9588065 795.89744092 124.17812701 817.37564122 136.8415401 827.36223633 158.88130875 832.04573437 212.6572984 832.04573437L212.6572984 832.04573437Z"  horiz-adv-x="1707" />

    
    <glyph glyph-name="gerenzhognxingyes" unicode="&#58967;" d="M514.25 829.5C368 829.5 248.75 710.25 248.75 564c0-101.25 56.25-189 139.5-234-157.5-45-281.25-175.5-315-342-2.25-13.5 6.75-27 20.25-29.25h4.5c11.25 0 22.5 9 24.75 20.25 36 184.5 200.25 319.5 389.25 319.5 146.25 0 265.5 119.25 265.5 265.5C777.5 712.5 660.5 829.5 514.25 829.5zM750.5 282.75c-11.25 6.75-27 4.5-33.75-6.75-6.75-11.25-4.5-27 6.75-33.75 92.25-58.5 157.5-153 180-258.75 2.25-11.25 13.5-20.25 24.75-20.25h4.5c13.5 2.25 22.5 15.75 20.25 29.25-24.75 119.25-99 225-202.5 290.25z"  horiz-adv-x="1024" />

    
    <glyph glyph-name="gerenzhognxing" unicode="&#58968;" d="M514.25 829.5C368 829.5 248.75 710.25 248.75 564c0-101.25 56.25-189 139.5-234-157.5-45-281.25-175.5-315-342-2.25-13.5 6.75-27 20.25-29.25h4.5c11.25 0 22.5 9 24.75 20.25 36 184.5 200.25 319.5 389.25 319.5 146.25 0 265.5 119.25 265.5 265.5C777.5 712.5 660.5 829.5 514.25 829.5z m0-479.25c-119.25 0-216 96.75-216 216s96.75 216 216 216 216-96.75 216-216-99-216-216-216zM750.5 282.75c-11.25 6.75-27 4.5-33.75-6.75-6.75-11.25-4.5-27 6.75-33.75 92.25-58.5 157.5-153 180-258.75 2.25-11.25 13.5-20.25 24.75-20.25h4.5c13.5 2.25 22.5 15.75 20.25 29.25-24.75 119.25-99 225-202.5 290.25z"  horiz-adv-x="1024" />

    
    <glyph glyph-name="jia" unicode="&#58902;" d="M956.74846573 422.96422734H548.61469033V831.1043537099999h-76.20122812v-408.14012637H64.27333671v-76.20122724h408.1401255v-408.15282569h76.20122812V346.7630001h408.1337754z"  horiz-adv-x="1024" />

    
    <glyph glyph-name="zaixianzixun" unicode="&#59234;" d="M232.63197031 124.70632002000002c-53.53159834 36.80297403-97.02602227 83.64312246-127.13754638 137.1747208C78.72862432 315.41263916 62 375.63568740000005 62 435.85873565c0 53.53159834 13.3828998 107.06319668 36.80297403 153.90334599 23.42007422 46.84014844 56.87732373 90.33457237 97.02602226 127.13754638 40.14869854 36.80297403 90.33457237 66.91449815 143.86617071 86.98884786C393.22676622 823.96282558 453.44981445 834 513.6728627 834c60.22304825 0 120.44609648-10.03717441 177.32342021-30.11152412 53.53159834-20.07434971 103.71747217-50.18587383 143.86617071-86.98884785 40.14869854-36.80297403 73.60594805-80.29739795 97.02602226-127.13754639 23.42007422-50.18587383 36.80297403-100.37174677 36.80297402-153.90334599 0-53.53159834-13.3828998-107.06319668-36.80297402-153.90334512-23.42007422-46.84014844-56.87732373-90.33457237-97.02602226-127.13754639-40.14869854-36.80297403-90.33457237-63.56877363-143.86617071-83.64312334-56.87732373-20.07434971-113.75464658-30.11152412-177.32342021-30.11152412-30.11152412 0-56.87732373 3.34572451-83.64312335 6.6914499h-3.34572451l-180.66914473-110.40892207c-3.34572451-3.34572451-10.03717441 0-10.03717529 6.6914499v180.66914561z m184.01487012-30.11152412h3.34572451c33.45724863-6.6914499 63.56877363-10.03717441 93.68029775-10.0371753 224.16356865 0 408.17843877 157.24907051 408.17843877 351.30111505S737.83643135 787.15985156 513.6728627 787.15985156C289.50929404 787.15985156 105.49442393 629.91078106 105.49442393 435.85873565c0-110.40892207 60.22304825-217.47211875 167.28624492-281.04089151 3.34572451-3.34572451 3.34572451-6.6914499 3.34572539-10.03717529v-123.791821c0-6.6914499 6.6914499-10.03717441 10.03717441-6.6914499l130.48327178 80.29739794zM369.80669112 298.68401484000003c-13.3828998 0-23.42007422 10.03717441-23.42007422 23.42007422 0 13.3828998 10.03717441 23.42007422 23.42007422 23.42007422h284.38661776c13.3828998 0 23.42007422-10.03717441 23.42007422-23.42007422 0-13.3828998-10.03717441-23.42007422-23.42007422-23.42007422H369.80669112z m-56.87732286 170.63197032c-13.3828998 0-23.42007422 10.03717441-23.42007422 23.42007421 0 13.3828998 10.03717441 23.42007422 23.42007422 23.42007422h401.48698887c13.3828998 0 23.42007422-10.03717441 23.42007422-23.42007422 0-13.3828998-10.03717441-23.42007422-23.42007422-23.42007421h-401.48698887z"  horiz-adv-x="1031" />

    
    <glyph glyph-name="shezhi" unicode="&#58885;" d="M905.86 467.979l-0.002 0-71.797 15.945c-5.594 17.868-12.887 34.998-21.324 51.473l38.849 64.668c14.509 23.2 21.803 57.282 0 79.129l-39.588 39.547c-10.662 10.708-24.994 15.206-39.461 15.206-14.985 0-30.151-4.895-41.465-12.759l-62.972-40.112c-16.343 8.477-33.384 15.731-51.125 21.499l-16.121 72.621c-4.806 26.654-28.1 55.492-58.989 55.492l-55.932 0c-30.897 0-49.815-29.276-55.932-55.93l-17.963-71.746c-18.917-6.03-37.143-13.761-54.445-22.897l-64.538 41.075c-11.361 7.865-26.481 12.759-41.512 12.759-14.42 0-28.752-4.497-39.46-15.206l-39.543-39.547c-21.848-21.846-14.507-55.93 0-79.128l40.854-68.078c-7.644-15.469-14.461-31.374-19.705-48.064l-71.75-15.946c-26.654-4.812-55.495-28.099-55.495-58.995l0-55.93c0-30.889 29.277-49.813 55.932-55.93l72.665-18.13c5.029-15.428 11.273-30.237 18.4-44.569l-40.899-68.165c-14.508-23.157-21.807-57.24 0-79.087l39.588-39.548c10.663-10.704 24.994-15.248 39.455-15.248 14.991 0 30.151 4.894 41.471 12.758l64.672 41.249c17.432-9.217 35.744-17.041 54.795-23.071l17.917-71.573c6.118-26.653 25.035-55.931 55.932-55.931l55.933 0c30.89 0 54.184 28.84 58.989 55.493l16.122 72.838c17.565 5.685 34.433 12.853 50.559 21.194l63.1-40.199c11.313-7.866 26.481-12.76 41.465-12.76 14.467 0 28.8 4.546 39.461 15.248l39.588 39.548c21.803 21.847 14.509 55.93 0 79.089l-38.89 64.757c7.819 15.38 14.596 31.371 20.055 47.976l72.671 18.132c26.655 6.115 55.932 25.039 55.932 55.93l0 55.93C961.354 439.879 932.516 463.167 905.86 467.979zM514.684 247.971c-74.593 0-135.333 60.562-135.333 134.931s60.739 134.889 135.333 134.889c74.588 0 135.287-60.52 135.287-134.889S589.272 247.971 514.684 247.971z"  horiz-adv-x="1024" />

    
    <glyph glyph-name="zuji" unicode="&#58909;" d="M742.4 678.4c0 12.8 6.4 25.6 12.8 38.4 12.8 6.4 25.6 12.8 38.4 12.8 12.8 0 25.6-6.4 38.4-12.8 12.8-6.4 12.8-25.6 12.8-38.4 0-12.8-6.4-25.6-12.8-38.4-12.8-6.4-25.6-12.8-38.4-12.8-12.8 0-25.6 6.4-38.4 12.8-6.4 12.8-12.8 25.6-12.8 38.4zM601.6 768c0 12.8 6.4 32 19.2 44.8 12.8 12.8 25.6 19.2 44.8 19.2 19.2 0 32-6.4 44.8-19.2 12.8-12.8 19.2-25.6 19.2-44.8 0-19.2-6.4-32-19.2-44.8-12.8-12.8-25.6-19.2-44.8-19.2-19.2 0-32 6.4-44.8 19.2-12.8 12.8-19.2 25.6-19.2 44.8z m-185.6 25.6c0 19.2 6.4 38.4 19.2 51.2 12.8 12.8 32 19.2 51.2 19.2 19.2 0 38.4-6.4 51.2-19.2 12.8-12.8 19.2-32 19.2-51.2 0-19.2-6.4-38.4-19.2-51.2-12.8-12.8-32-19.2-51.2-19.2-19.2 0-38.4 6.4-51.2 19.2-12.8 12.8-19.2 32-19.2 51.2z m-236.8-12.8c0 25.6 12.8 44.8 25.6 64 19.2 19.2 44.8 25.6 64 25.6 25.6 0 51.2-12.8 64-25.6 19.2-19.2 25.6-38.4 25.6-64s-12.8-44.8-25.6-64c-19.2-19.2-44.8-25.6-64-25.6-25.6 0-51.2 12.8-64 25.6-19.2 19.2-25.6 38.4-25.6 64z m435.2-115.2H384h-6.4-12.8C281.6 659.2 217.6 595.2 217.6 512c0-57.6 32-102.4 76.8-134.4 0 0 89.6-44.8 0-268.8-6.4-19.2-12.8-38.4-12.8-57.6 0-83.2 70.4-153.6 160-153.6 38.4 0 76.8 12.8 102.4 38.4 160 128 262.4 320 262.4 537.6v6.4c0 96-83.2 185.6-192 185.6z"  horiz-adv-x="1024" />

    
    <glyph glyph-name="remove" unicode="&#58894;" d="M804.414 772.566h-156.903c-7.827 67.871-65.572 120.767-135.51 120.767-69.935 0-127.672-52.893-135.499-120.767h-156.911c-63.498 0-115.15-51.667-115.15-115.163v-5.909c0-48.523 30.213-90.055 72.775-106.977v-544.022c0-63.498 51.659-115.163 115.152-115.163h439.272c63.495 0 115.15 51.67 115.15 115.163v544.02c42.559 16.924 72.775 58.456 72.775 106.977v5.909c0 63.498-51.657 115.165-115.15 115.165zM512 838.718c39.777 0 72.978-28.51 80.324-66.151h-160.633c7.344 37.643 40.547 66.151 80.309 66.151zM792.174 0.496c0-33.385-27.163-60.55-60.537-60.55h-439.272c-33.374 0-60.537 27.167-60.537 60.55v535.836h560.347v-535.836zM864.948 651.495c0-33.385-27.163-60.55-60.537-60.55h-584.822c-33.374 0-60.537 27.165-60.537 60.55v5.909c0 33.385 27.163 60.55 60.537 60.55h584.824c33.374 0 60.537-27.165 60.537-60.55v-5.909zM365.594 9.791c15.082 0 27.307 12.23 27.307 27.305v307.468c0 15.078-12.227 27.309-27.307 27.309s-27.307-12.232-27.307-27.309v-307.468c-0.002-15.08 12.225-27.305 27.307-27.305zM512 9.791c15.082 0 27.309 12.23 27.309 27.305v307.468c0 15.078-12.232 27.309-27.309 27.309-15.08 0-27.307-12.232-27.307-27.309v-307.468c0-15.08 12.225-27.305 27.307-27.305zM658.406 9.791c15.08 0 27.305 12.23 27.305 27.305v307.468c0 15.078-12.227 27.309-27.305 27.309-15.084 0-27.309-12.232-27.309-27.309v-307.468c-0.002-15.08 12.23-27.305 27.309-27.305z"  horiz-adv-x="1024" />

    
    <glyph glyph-name="icon-test" unicode="&#58901;" d="M829.473073 741.563652h-634.930797c-40.804335 0-74.176396-38.143739-74.176396-84.768639v-545.599236c0-46.614667 33.372062-84.758406 74.176396-84.758406h634.930797c40.787962 0 74.160024 38.143739 74.160024 84.758406V656.795013c0.099261 46.623877-33.372062 84.768639-74.160024 84.768639z m0-39.757493c18.989493 0 35.051307-20.602224 35.051307-45.011146v-74.176396H629.507786V701.806159h199.965287z m-239.156891 0v-352.891235l-60.824297 30.795376-17.492397 8.870019-17.476023-8.870019-60.823274-30.795376V701.806159h156.615991z m-395.773906 0h199.948915v-119.187542H159.474596v74.176396c0 24.408923 16.07921 45.011146 35.06768 45.011146z m634.930797-635.611295h-634.930797c-18.989493 0-35.068703 20.602224-35.068703 45.001937V542.945035h235.016595v-198.61043c0-21.839401 17.674545-39.764656 39.207977-39.764655l78.30032 39.764655 78.316693-39.764655c21.516036 0 39.191604 17.926278 39.191604 39.764655V542.945035H864.523357v-431.749258c0.001023-24.399713-16.060791-45.000913-35.050284-45.000913z"  horiz-adv-x="1024" />

    
    <glyph glyph-name="yeji" unicode="&#58908;" d="M866.002035 417.92874c-16.551978 0-30.02585 13.604856-30.025851 30.331819V607.779669L549.311279 285.843446 336.915891 484.624768 180.300924 308.733782c-5.66093-6.39771-13.771655-10.063193-22.262026-10.063193-7.448646 0-14.582113 2.790556-20.094664 7.844666-5.958712 5.380544-9.434883 12.795421-9.865695 20.871353-0.413416 8.086166 2.301416 15.848966 7.647167 21.87317l197.349717 221.600027 212.362642-198.790532 253.213026 284.356326h-145.145752c-16.519232 0-29.958312 13.597693-29.958312 30.315447 0 16.71673 13.440104 30.322609 29.958312 30.322609h212.461903c2.052752 0 3.725858-0.471744 4.536317-0.694825l0.363273-0.099261 0.398066-0.058328c1.753947-0.239454 3.475148-0.521886 5.379521-1.257644 2.366907-0.943488 4.071735-2.119267 5.329379-2.979867l0.512676-0.314155c1.27504-0.686638 2.417049-1.348718 3.691066-2.540869l2.433422-2.656503c0.398066-0.554632 0.99363-1.457188 1.888-2.855025l0.346901-0.513699c0.811482-1.109264 1.737574-2.375094 2.466167-4.071736 0.794086-1.787716 1.108241-3.508917 1.242294-4.237511l0.14838-0.621147c0.595564-2.308579 1.091868-4.320399 1.142009-6.637164l0.115634-239.276618c0.001023-16.715707-13.43908-30.320563-29.958312-30.320563z m-707.964161-306.34513h707.964161c16.519232 0 29.958312-13.630439 29.958312-30.365588 0-16.700357-13.440104-30.283724-29.958312-30.283723h-707.964161c-16.551978 0-29.993105 13.582343-29.993104 30.283723 0.001023 16.73515 13.441127 30.365588 29.993104 30.365588z"  horiz-adv-x="1024" />

    
    <glyph glyph-name="shachu" unicode="&#58940;" d="M568.96 383.93600000000004l326.336 326.336a39.232 39.232 0 1 1-55.552 55.552L513.408 439.488l-326.4 326.336a39.232 39.232 0 1 1-55.552-55.552l326.4-326.336L131.584 57.60000000000002a39.232 39.232 0 1 1 55.552-55.552l326.336 326.336 326.336-326.336c15.36-15.232 40.192-15.232 55.552 0a39.36 39.36 0 0 1 0 55.552l-326.4 326.336z"  horiz-adv-x="1024" />

    
    <glyph glyph-name="fenxiangtop" unicode="&#58973;" d="M838.92228437-32.51255182H185.07771563c-70.27493433 0-127.39900416 57.12406983-127.39900416 127.39900416v272.88044885h49.31574328v-272.88044885c0-43.15127581 34.93198507-78.08326087 78.08326088-78.08326087h653.84456874c43.15127581 0 78.08326087 34.93198507 78.08326088 78.08326087v272.88044885h49.31574328v-272.88044885c0-70.27493433-57.12406983-127.39900416-127.39900416-127.39900416M690.56408803 572.83820203c-19.72629731-18.49340359-41.09645255-12.32893611-47.26092003 13.97279402L603.43960803 754.89548857c-6.16446749 26.30173013 9.86314866 41.50741789 35.7539146 34.11005668l165.61870507-49.31574443c25.89076594-7.80832654 31.23330389-29.17848178 11.50700771-47.67188537l-125.75514738-119.17971342zM411.1082075 154.06534541999997l-49.31574329 0.82192839c3.28771584 259.31861902 106.43981312 444.25265721 297.53831993 535.48678372l21.37015524-44.38416953c-175.48185486-84.24772835-266.30501603-249.45547037-269.59273188-491.92454258"  horiz-adv-x="1024" />

    
    <glyph glyph-name="qiehuanzuhu" unicode="&#58962;" d="M950.093 408.228l-179.775 173.078c-14.382 13.851-35.955 13.851-50.336 0-14.382-13.842-14.382-34.614 0-48.465l118.647-114.228h-345.168c-21.573 0-35.955-13.842-35.955-34.614s14.382-34.614 35.955-34.614h345.168l-118.639-114.228c-14.382-13.851-14.382-34.623 0-48.465 7.192-6.93 14.382-10.386 25.164-10.386 10.792 0 17.982 3.465 25.173 10.386l179.775 176.535s0 3.465 3.6 3.465c10.782 10.386 10.782 31.149-3.6 41.535zM853.010 141.693c-21.573 0-35.955-13.851-35.955-34.614v-69.237c0-20.763-14.382-34.614-35.955-34.614h-611.235c-21.573 0-35.955 13.851-35.955 34.614v692.317c0 20.763 14.382 34.614 35.955 34.614h611.235c21.573 0 35.955-13.851 35.955-34.614v-69.237c0-20.764 14.382-34.614 35.955-34.614s35.955 13.851 35.955 34.614v69.237c0 58.842-46.736 103.842-107.865 103.842h-611.235c-61.119 0-107.865-45-107.865-103.842v-692.317c0-58.842 46.747-103.842 107.865-103.842h611.235c61.128 0 107.865 45 107.865 103.842v69.237c0 20.764-14.382 34.614-35.955 34.614z"  horiz-adv-x="1024" />

    
    <glyph glyph-name="tongji" unicode="&#58954;" d="M521.58 379.237v472.816c250.725-22.642 450.175-222.092 472.817-472.817h-472.816zM918.229 302.909h-435.436c-21.963 0-39.769 17.805-39.769 39.769 0 0 0 0 0 0v435.463c-222.914-20.121-397.682-207.273-397.682-435.436 0-241.605 195.898-437.452 437.451-437.451 228.163 0 415.339 174.715 435.436 397.657z"  horiz-adv-x="1024" />

    
    <glyph glyph-name="youjiantou" unicode="&#58905;" d="M334.5-62.39999999999998c-8.6 0-17.1 3.3-23.7 9.8-13.1 13.1-13.1 34.3 0 47.4l389.9 389.9-389.9 389.9c-13.1 13.1-13.1 34.3 0 47.4 13.1 13.1 34.3 13.1 47.4 0l413.6-413.6c13.1-13.1 13.1-34.3 0-47.4L358.2-52.60000000000002c-6.6-6.5-15.2-9.8-23.7-9.8z"  horiz-adv-x="1024" />

    
    <glyph glyph-name="xihuan" unicode="&#59121;" d="M714.66666687 757.33333312c-122.66666625 0-197.33333344-96-197.33333343-96S453.33333312 757.33333312 320 757.33333312 85.33333344 682.66666688 85.33333344 501.33333375c0-256.00000031 432-533.33333344 432-533.33333344S938.66666656 261.33333374999995 938.66666656 496.00000031C938.66666656 688.00000031 816.00000031 757.33333312 714.66666687 757.33333312M517.33333344 31.99999968999998S138.66666688 293.33333344000005 138.66666688 501.33333375c0 133.33333312 90.66666656 208.00000031 192 207.99999938C432.00000031 709.33333313 517.33333344 597.3333337500001 517.33333344 597.3333337500001s101.33333344 112.00000031 192 111.99999938c90.66666656 0 181.33333312-69.33333375 181.33333312-213.33333282-5.33333344-202.66666687-373.33333312-463.99999969-373.33333312-464.00000062"  horiz-adv-x="1024" />

    
    <glyph glyph-name="sousuo" unicode="&#58906;" d="M494.87757335 38.789793799999984a375.58870343 375.58870343 0 1 0 375.03636798 375.58870474 375.58870343 375.58870343 0 0 0-375.03636798-375.58870474z m0 695.39143935a320.35507137 320.35507137 0 1 1 319.80273463-319.80273461 320.35507137 320.35507137 0 0 1-319.80273463 319.80273461zM869.36160458 1.7832606199999645a27.61681602 27.61681602 0 0 0-19.3317711 8.28504493l-133.66539123 133.66539125a27.61681602 27.61681602 0 1 0 39.21587893 39.21587893l133.66539124-133.66539123a27.61681602 27.61681602 0 0 0-19.33177109-46.94858843zM291.06546788 467.40278614a27.61681602 27.61681602 0 0 0-25.95980705 37.55886996A250.20835714 250.20835714 0 0 0 401.53273459 646.35975681a27.61681602 27.61681602 0 0 0 20.43644332-51.36727861 194.97472379 194.97472379 0 0 1-110.46726541-110.46726671 27.61681602 27.61681602 0 0 0-20.43644462-17.12242535z"  horiz-adv-x="1024" />

    
    <glyph glyph-name="zhanghaoguanli" unicode="&#58937;" d="M756.378125 6.787500000000023c-14.2875 0-23.625 13.021875-26.578125 25.93125l-7.0875 28.40625a146.559375 146.559375 0 0 0-20.334375 8.521875l-25.65-16.36875a34.2 34.2 0 0 0-19.18125-5.878125 26.38125 26.38125 0 0 0-18.815625 7.396875l-16.59375 16.59375c-10.096875 10.096875-7.509375 25.93125-0.478125 37.153125l16.284375 27.16875a140.2875 140.2875 0 0 0-6.609375 15.975l-28.884375 7.228125c-12.853125 2.925-25.875 12.290625-25.875 26.55v23.5125c0 14.540625 13.190625 25.65 25.93125 27.9l28.29375 6.271875c1.8 5.540625 4.190625 11.25 7.171875 17.409375l-16.340625 27.225c-6.46875 10.321875-10.265625 26.38125 0.478125 37.096875l16.65 16.621875a26.353125 26.353125 0 0 0 18.815625 7.340625c6.834375 0 13.8375-2.19375 19.29375-5.90625l25.453125-16.25625c6.496875 3.31875 13.275 6.13125 20.19375 8.465625l7.115625 28.490625c2.953125 12.88125 12.31875 25.875 26.55 25.875h23.540625c14.56875 0 25.59375-13.1625 27.95625-25.903125l6.328125-28.659375c6.4125-2.19375 12.6-4.809375 18.703125-7.903125l24.975 15.946875c5.2875 3.65625 12.290625 5.85 19.096875 5.85 7.565625 0 14.0625-2.53125 18.84375-7.340625l16.65-16.621875c10.771875-10.8 6.946875-26.775 0.45-37.153125l-15.384375-25.70625a137.8125 137.8125 0 0 0 7.7625-18.871875l28.51875-6.271875c12.6-2.25 25.7625-13.3875 25.7625-27.9v-23.5125c0-14.2875-13.05-23.653125-25.959375-26.578125l-28.85625-7.2a136.96875 136.96875 0 0 0-7.284375-17.409375l15.46875-25.81875c7.03125-11.1375 9.61875-26.971875-0.478125-37.06875l-16.65-16.65a26.49375 26.49375 0 0 0-18.84375-7.340625c-6.80625 0-13.78125 2.165625-19.209375 5.9625l-24.946875 15.8625a138.4875 138.4875 0 0 0-18.421875-7.734375l-6.4125-28.884375c-2.25-12.628125-13.33125-25.790625-27.84375-25.790625h-23.56875v-0.028125z m23.540625 25.0875a10.0125 10.0125 0 0 1 3.178125 5.259375l9.28125 42.075a3.20625 3.20625 0 0 0 2.08125 2.25l10.29375 3.31875a125.71875 125.71875 0 0 1 17.915625 7.5375l9.646875 5.0625a3.6 3.6 0 0 0 1.434375 0.365625c0.590625 0 1.18125-0.225 1.715625-0.50625l36.3375-23.2875c1.29375-0.84375 3.290625-1.4625 4.95-1.4625a5.5125 5.5125 0 0 1 1.378125 0.16875l15.75 15.834375a14.9625 14.9625 0 0 1-2.446875 6.721875l-21.909375 36.5625a3.09375 3.09375 0 0 0-0.1125 3.0375l4.753125 9.28125c2.840625 5.596875 5.259375 11.41875 7.0875 17.015625l3.234375 9.928125a3.375 3.375 0 0 0 2.221875 2.053125l40.66875 10.153125a15.890625 15.890625 0 0 1 6.8625 3.09375v22.6125a9.984375 9.984375 0 0 1-5.2875 3.234375l-0.703125 0.1125-40.95 9.084375a3.375 3.375 0 0 0-2.3625 2.08125l-3.178125 10.490625a121.3875 121.3875 0 0 1-7.621875 18.16875l-4.753125 9.28125a3.15 3.15 0 0 0 0.1125 3.065625l21.7125 36.1125a16.25625 16.25625 0 0 1 2.64375 7.115625l-16.003125 15.975c0.084375-0.084375 0.05625-0.084375-0.1125-0.084375l-0.984375 0.05625a9.7875 9.7875 0 0 1-4.95-1.434375s-0.646875-0.45-0.646875-0.534375l-35.634375-22.66875a2.953125 2.953125 0 0 0-3.178125-0.140625l-9.61875 5.00625a118.490625 118.490625 0 0 1-18.16875 7.621875l-10.2375 3.31875a3.065625 3.065625 0 0 0-2.08125 2.278125l-9.1125 41.0625-0.196875 0.871875a8.971875 8.971875 0 0 1-3.515625 5.315625l-22.303125-0.05625a15.69375 15.69375 0 0 1-3.0375-6.46875l-10.125-40.753125a3.20625 3.20625 0 0 0-2.109375-2.221875l-9.984375-3.20625c-6.440625-2.025-12.965625-4.78125-19.35-8.128125l-9.675-5.11875a3.0375 3.0375 0 0 0-1.490625-0.309375 3.121875 3.121875 0 0 0-1.659375 0.45l-37.096875 23.653125a9.759375 9.759375 0 0 1-4.978125 1.434375 3.65625 3.65625 0 0 1-1.321875-0.16875l-15.75-15.80625a15.1875 15.1875 0 0 1 2.475-6.75l22.696875-37.828125a2.98125 2.98125 0 0 0 0.140625-2.98125l-4.584375-9.253125a120.0375 120.0375 0 0 1-7.03125-17.04375l-3.234375-10.378125a3.290625 3.290625 0 0 0-2.334375-2.08125l-40.78125-9.028125-0.9-0.16875c-2.5875-0.478125-4.978125-2.728125-5.259375-3.515625l0.05625-22.33125c0.815625-0.7875 3.09375-2.25 6.440625-3.009375l41.0625-10.2375a3.31875 3.31875 0 0 0 2.221875-2.053125l3.20625-9.95625c1.74375-5.259375 3.88125-10.378125 6.525-15.778125l4.584375-9.253125a2.896875 2.896875 0 0 0-0.1125-3.009375l-22.5-37.434375a17.859375 17.859375 0 0 1-2.7-7.115625l16.03125-16.003125c-0.028125 0.028125 0 0.084375 0.084375 0.084375 0.225 0 0.590625-0.084375 0.928125-0.084375a9.3375 9.3375 0 0 1 4.978125 1.4625l37.18125 23.709375a3.15 3.15 0 0 0 3.121875 0.140625l9.646875-5.146875c6.440625-3.346875 12.965625-6.103125 19.4625-8.15625l9.95625-3.178125a3.15 3.15 0 0 0 2.1375-2.25l10.040625-40.275a16.875 16.875 0 0 1 3.121875-6.890625h22.725v0.028125z m-11.840625 87.834375a78.6375 78.6375 0 0 0-78.58125 78.525 78.609375 78.609375 0 0 0 157.246875 0 78.6375 78.6375 0 0 0-78.665625-78.525z m0.196875 131.878125a53.746875 53.746875 0 0 1-53.803125-53.578125 53.775 53.775 0 0 1 107.578125 0 53.71875 53.71875 0 0 1-53.775 53.578125z m-218.925-233.803125h-351.5625a133.25625 133.25625 0 0 0-133.115625 133.14375V628.096875a133.25625 133.25625 0 0 0 133.115625 133.14375h582.946875a133.284375 133.284375 0 0 0 133.0875-133.14375v-204.6375a17.6625 17.6625 0 1 0-35.353125 0V628.096875a97.875 97.875 0 0 1-97.7625 97.734375H197.7875a97.875 97.875 0 0 1-97.734375-97.734375v-477.140625a97.81875 97.81875 0 0 1 97.734375-97.734375h351.5625a17.71875 17.71875 0 0 0 0-35.4375z m-165.7125 323.971875a151.453125 151.453125 0 0 0-151.25625 151.3125 151.425 151.425 0 0 0 151.25625 151.25625 151.453125 151.453125 0 0 0 151.284375-151.25625 151.509375 151.509375 0 0 0-151.284375-151.3125z m0 267.215625a116.04375 116.04375 0 0 1-115.903125-115.903125c0-63.9 52.003125-115.875 115.903125-115.875s115.903125 51.975 115.903125 115.875a116.04375 116.04375 0 0 1-115.903125 115.903125zM176.69375 134.64374999999995a17.71875 17.71875 0 0 0-17.690625 17.746875c0 123.8625 100.771875 224.60625 224.634375 224.60625a222.946875 222.946875 0 0 0 179.859375-90 17.690625 17.690625 0 0 0-28.29375-21.234375 187.875 187.875 0 0 1-151.5375 75.853125 189.50625 189.50625 0 0 1-189.253125-189.253125 17.746875 17.746875 0 0 0-17.71875-17.71875z m630.028125 400.865625h-171.1125a17.71875 17.71875 0 1 0 0 35.409375h171.1125a17.690625 17.690625 0 0 0 0-35.409375z m0-112.10625h-171.1125a17.690625 17.690625 0 1 0 0 35.409375h171.1125a17.6625 17.6625 0 0 0 0-35.409375z"  horiz-adv-x="1024" />

    
    <glyph glyph-name="dianhuayes" unicode="&#59177;" d="M418.368 551.808l-88.416-89.92C376 359.67999999999995 473.632 245.856 586.912 207.58399999999995l76.416 76.192s181.184-31.616 221.92-51.392c35.296-17.12 46.976-55.072 41.44-101.888-5.92-50.304-71.84-161.248-190.624-162.464-118.784-1.216-293.696 88.256-419.008 220.288C191.744 320.384 80 487.712 97.92 629.856c17.888 142.08 141.696 167.52 172.672 169.792 31.296 2.304 56.16-6.88 75.04-30.272 24.32-30.144 72.768-217.568 72.768-217.568z"  horiz-adv-x="1024" />

    
    <glyph glyph-name="xihuanyes" unicode="&#59015;" d="M553.51999971 28.304999709999947a59.985 59.985 0 0 0-83.00999971 0.03000058L188.63 298.59000000000003C188.24000029 298.905 77.00000029 397.14 77.00000029 520.1999997099999 77.00000029 665.86499971 169.25000029 756.34500029 317.80999971 756.34500029c78.49500029 0 151.26000029-53.66999971 194.19000029-93.195 42.90000029 39.52500029 115.66500029 93.195 194.19000029 93.195C854.72 756.34500029 946.99999971 665.86499971 946.99999971 520.1999997099999c0-106.965-85.20000029-196.76999971-111.29999942-221.76L553.51999971 28.304999709999947z"  horiz-adv-x="1024" />

    
    <glyph glyph-name="xinyonghu" unicode="&#58881;" d="M512 270.222c-159.289 0-284.444 125.156-284.444 284.445S352.71 839.11 512 839.11s284.444-125.155 284.444-284.444S671.29 270.222 512 270.222z m0 56.89c125.156 0 227.556 102.4 227.556 227.555S637.156 782.222 512 782.222s-227.556-102.4-227.556-227.555S386.844 327.11 512 327.11zM796.444-128h-56.888V270.222h56.888V-128zM568.89 42.667v56.889H967.11v-56.89H568.89zM512 270.222c-221.867 0-398.222-176.355-398.222-398.222h-56.89c0 250.311 204.8 455.111 455.112 455.111"  horiz-adv-x="1024" />

    
    <glyph glyph-name="jifen" unicode="&#58900;" d="M512-64C264.533333-64 64 136.533333 64 384S264.533333 832 512 832s448-200.533333 448-448-200.533333-448-448-448z m0 842.666667C294.4 778.666667 117.333333 601.6 117.333333 384S294.4-10.666667 512-10.666667 906.666667 166.4 906.666667 384 729.6 778.666667 512 778.666667zM672 339.2h-134.4v85.333333h128v53.333334h-115.2l98.133333 98.133333-36.266666 36.266667-100.266667-98.133334-100.266667 98.133334-36.266666-36.266667 98.133333-98.133333h-115.2v-53.333334h128v-85.333333h-134.4v-53.333333h134.4v-149.333334h51.2v149.333334h134.4z"  horiz-adv-x="1024" />

    
    <glyph glyph-name="fenxiang" unicode="&#58907;" d="M815.3 48.8h-608c-78.7 0-142.7 64-142.7 142.7V576.4c0 78.7 64 142.7 142.7 142.7h304c13.8 0 25-11.2 25-25s-11.2-25-25-25h-304c-51.1 0-92.7-41.6-92.7-92.7v-384.9c0-51.1 41.6-92.7 92.7-92.7h608c51.1 0 92.7 41.6 92.7 92.7V328c0 13.8 11.2 25 25 25s25-11.2 25-25v-136.5c0-78.7-64-142.7-142.7-142.7zM526 352H287.4c-13.8 0-25 11.2-25 25s11.2 25 25 25H526c67.8 0 132.7 28.8 178.2 79.1l203 224.7c9.3 10.2 25.1 11 35.3 1.8 10.2-9.3 11-25.1 1.8-35.3l-203-224.7C686.3 386.9 607.9 352 526 352zM933 475.4c-13.8 0-25 11.2-25 25V669.1H739.3c-13.8 0-25 11.2-25 25s11.2 25 25 25H933c13.8 0 25-11.2 25-25v-193.7c0-13.8-11.2-25-25-25z"  horiz-adv-x="1024" />

    
    <glyph glyph-name="fenxiangyes" unicode="&#58938;" d="M810.5 724.5h-596c-82.5 0-149.6-67.1-149.6-149.6v-378.7c0-82.5 67.1-149.6 149.6-149.6h596c82.5 0 149.6 67.1 149.6 149.6V574.9c0 82.5-67.1 149.6-149.6 149.6z m22-343.5c0-18.6-15.1-33.8-33.8-33.8-18.6 0-33.8 15.1-33.8 33.8v86.8L637.3 326.5c-50.9-56.3-123.6-88.6-199.5-88.6H226.3c-18.6 0-33.8 15.1-33.8 33.8 0 18.6 15.1 33.8 33.8 33.8h211.5c56.8 0 111.3 24.2 149.4 66.4l133 147.2H627c-18.6 0-33.8 15.1-33.8 33.8 0 18.6 15.1 33.8 33.8 33.8h171.7c18.6 0 33.8-15.1 33.8-33.8V381z"  horiz-adv-x="1024" />

    
    <glyph glyph-name="zuojiantou" unicode="&#59014;" d="M689.5 830.4c8.6 0 17.1-3.3 23.7-9.8 13.1-13.1 13.1-34.3 0-47.4l-389.9-389.9 389.9-389.9c13.1-13.1 13.1-34.3 0-47.39999999-13.1-13.1-34.3-13.1-47.4-1e-8l-413.6 413.6c-13.1 13.1-13.1 34.3 0 47.4L665.8 820.6c6.6 6.5 15.2 9.8 23.7 9.8z"  horiz-adv-x="1024" />

    
    <glyph glyph-name="jishou" unicode="&#59118;" d="M512-64C265.6-64 64 137.60000000000002 64 384S265.6 832 512 832s448-201.6 448-448-201.6-448-448-448z m0 832c-211.2 0-384-172.8-384-384s172.8-384 384-384 384 172.8 384 384-172.8 384-384 384z m0-672c-17.6 0-32 14.4-32 32V416c0 17.6 14.4 32 32 32s32-14.4 32-32v-288c0-17.6-14.4-32-32-32z m160 128H352c-17.6 0-32 14.4-32 32s14.4 32 32 32h320c17.6 0 32-14.4 32-32s-14.4-32-32-32z m0 160H352c-17.6 0-32 14.4-32 32s14.4 32 32 32h320c17.6 0 32-14.4 32-32s-14.4-32-32-32z m-160 0c-8 0-16 3.2-22.4 9.6L331.2 552c-12.8 12.8-12.8 32 0 44.8 12.8 12.8 32 12.8 44.8 0l158.4-158.4c12.8-12.8 12.8-32 0-44.8-6.4-6.4-14.4-9.6-22.4-9.6z m0 0c-8 0-16 3.2-22.4 9.6-12.8 12.8-12.8 32 0 44.8L648 596.8c12.8 12.8 32 12.8 44.8 0 12.8-12.8 12.8-32 0-44.8L534.4 393.6C528 387.2 520 384 512 384z"  horiz-adv-x="1024" />

    
    <glyph glyph-name="gouwuche" unicode="&#59218;" d="M935.488 716.096c18.752-19.744 27.2-47.264 23.744-76.096l-50.336-268.448c-5.504-41.76-45.824-75.584-91.872-75.584L386.144 266.4c-0.832-0.224-1.792-0.224-2.496-0.224-16.576 0-30.656 11.968-31.84 27.616-1.216 16.512 12.032 30.624 29.44 31.936L814.4 355.52c15.872 0.128 29.216 11.744 31.04 25.024l50.336 268.416c1.184 10.048-1.792 21.056-8.128 27.776a20.8 20.8 0 0 1-15.392 6.464h-552.8c-17.664 0-32 13.376-32 29.76 0 16.416 14.464 29.792 32 29.792h552.928c24.448 0 46.752-9.44 63.104-26.656z m-73.28-509.504c14.528 0 32-15.232 32-31.872 0-16.384-14.208-32-32-32H343.68c-46.08 0-86.496 38.144-92.096 81.472L197.408 579.8399999999999l-30.784 166.272C164.704 760.704 150.496 768 136.64 768H95.968C78.304 768 64 785.824 64 802.24 64 818.56 78.432 832 96 832h40.64c46.528 0 87.52-29.76 94.08-85.888l29.76-166.272 54.336-347.776c1.792-13.856 15.264-25.472 28.736-25.472H862.24zM320 0s0-35.36 0 0a64 64 0 1 0 128 0 64 64 0 0 0-128 0z m384 0s0-35.36 0 0a64 64 0 1 0 128 0 64 64 0 0 0-128 0z"  horiz-adv-x="1024" />

    
    <glyph glyph-name="xia" unicode="&#59235;" d="M65.6 561.5c0 8.6 3.3 17.1 9.8 23.7 13.1 13.1 34.3 13.1 47.4 0l389.9-389.9 389.9 389.9c13.1 13.1 34.3 13.1 47.39999999 0 13.1-13.1 13.1-34.3 1e-8-47.4l-413.6-413.6c-13.1-13.1-34.3-13.1-47.4 0L75.4 537.8c-6.5 6.6-9.8 15.2-9.8 23.7z"  horiz-adv-x="1024" />

    
    <glyph glyph-name="shang" unicode="&#59236;" d="M958.4 206.5c0-8.6-3.3-17.1-9.8-23.7-13.1-13.1-34.3-13.1-47.4 0l-389.9 389.9-389.9-389.9c-13.1-13.1-34.3-13.1-47.39999999 0-13.1 13.1-13.1 34.3-1e-8 47.4l413.6 413.6c13.1 13.1 34.3 13.1 47.4 0L948.6 230.20000000000005c6.5-6.6 9.8-15.2 9.8-23.7z"  horiz-adv-x="1024" />

    


  </font>
</defs>
</svg>
